<svg id="svg" version="1.1" xmlns="http://www.w3.org/2000/svg" xmlns:xlink="http://www.w3.org/1999/xlink" width="400" height="400" viewBox="0, 0, 400,400"><g id="svgg"><path id="path0" d="M173.200 80.571 C 162.040 83.051,154.390 90.007,150.732 101.000 L 149.800 103.800 149.800 190.063 L 149.800 276.326 151.021 277.835 C 153.825 281.299,147.925 280.984,212.600 281.121 C 253.447 281.208,270.658 281.114,272.800 280.793 C 283.745 279.154,290.692 272.585,293.178 261.523 C 293.460 260.271,293.600 245.517,293.600 217.213 L 293.600 174.780 294.626 174.390 C 295.190 174.176,296.066 174.000,296.573 174.000 C 300.043 174.000,306.942 169.428,310.813 164.564 C 320.556 152.321,314.376 130.460,299.736 125.385 C 294.560 123.591,294.814 123.600,250.500 123.600 L 208.400 123.600 208.400 115.177 C 208.400 110.545,208.210 105.910,207.978 104.877 C 207.241 101.598,206.716 99.847,205.948 98.104 C 205.536 97.172,205.200 96.320,205.200 96.212 C 205.200 95.585,201.926 91.053,200.028 89.052 C 193.299 81.959,182.423 78.521,173.200 80.571 M87.138 124.502 C 86.553 124.996,85.878 125.793,85.638 126.274 C 84.868 127.810,85.034 275.718,85.807 277.213 C 87.062 279.641,86.641 279.600,110.600 279.600 C 133.954 279.600,134.138 279.585,135.188 277.622 C 135.466 277.102,135.600 252.381,135.600 201.387 L 135.600 125.921 134.358 124.760 L 133.115 123.600 110.658 123.602 L 88.200 123.604 87.138 124.502 " stroke="none" fill="#fbfbfc" fill-rule="evenodd"></path><path id="path1" d="M183.200 7.200 C 183.200 7.435,181.808 7.600,179.824 7.600 C 177.967 7.600,176.336 7.780,176.200 8.000 C 176.064 8.220,175.018 8.406,173.876 8.413 C 171.795 8.426,168.511 8.846,164.400 9.624 C 163.190 9.853,161.525 10.140,160.700 10.262 C 159.875 10.384,159.200 10.645,159.200 10.842 C 159.200 11.039,158.480 11.200,157.600 11.200 C 156.720 11.200,156.000 11.380,156.000 11.600 C 156.000 11.820,155.280 12.000,154.400 12.000 C 153.520 12.000,152.800 12.180,152.800 12.400 C 152.800 12.620,152.080 12.800,151.200 12.800 C 150.320 12.800,149.600 12.980,149.600 13.200 C 149.600 13.420,148.880 13.600,148.000 13.600 C 147.120 13.600,146.400 13.780,146.400 14.000 C 146.400 14.220,145.770 14.400,145.000 14.400 C 144.230 14.400,143.600 14.580,143.600 14.800 C 143.600 15.020,143.060 15.200,142.400 15.200 C 141.740 15.200,141.200 15.380,141.200 15.600 C 141.200 15.820,140.660 16.000,140.000 16.000 C 139.340 16.000,138.800 16.180,138.800 16.400 C 138.800 16.620,138.260 16.800,137.600 16.800 C 136.940 16.800,136.400 16.980,136.400 17.200 C 136.400 17.420,135.860 17.600,135.200 17.600 C 134.540 17.600,134.000 17.780,134.000 18.000 C 134.000 18.220,133.561 18.400,133.024 18.400 C 132.487 18.400,131.936 18.580,131.800 18.800 C 131.664 19.020,131.203 19.200,130.776 19.200 C 130.349 19.200,130.000 19.380,130.000 19.600 C 130.000 19.820,129.460 20.000,128.800 20.000 C 128.140 20.000,127.600 20.180,127.600 20.400 C 127.600 20.620,127.240 20.800,126.800 20.800 C 126.360 20.800,126.000 20.980,126.000 21.200 C 126.000 21.420,125.550 21.600,125.000 21.600 C 124.450 21.600,124.000 21.780,124.000 22.000 C 124.000 22.220,123.640 22.400,123.200 22.400 C 122.760 22.400,122.400 22.580,122.400 22.800 C 122.400 23.020,122.040 23.200,121.600 23.200 C 121.160 23.200,120.800 23.380,120.800 23.600 C 120.800 23.820,120.440 24.000,120.000 24.000 C 119.560 24.000,119.200 24.180,119.200 24.400 C 119.200 24.620,118.885 24.801,118.500 24.802 C 118.115 24.804,117.284 25.074,116.654 25.402 C 116.024 25.731,115.259 26.000,114.954 26.000 C 114.649 26.000,114.400 26.180,114.400 26.400 C 114.400 26.620,114.040 26.800,113.600 26.800 C 113.160 26.800,112.800 26.980,112.800 27.200 C 112.800 27.420,112.440 27.600,112.000 27.600 C 111.560 27.600,111.200 27.746,111.200 27.925 C 111.200 28.104,110.570 28.498,109.800 28.800 C 109.030 29.102,108.400 29.496,108.400 29.675 C 108.400 29.854,108.080 30.000,107.688 30.000 C 107.297 30.000,106.717 30.360,106.400 30.800 C 106.083 31.240,105.503 31.600,105.112 31.600 C 104.720 31.600,104.400 31.780,104.400 32.000 C 104.400 32.220,104.080 32.400,103.688 32.400 C 103.297 32.400,102.717 32.760,102.400 33.200 C 102.083 33.640,101.503 34.000,101.112 34.000 C 100.720 34.000,100.400 34.180,100.400 34.400 C 100.400 34.620,100.080 34.800,99.688 34.800 C 99.297 34.800,98.717 35.160,98.400 35.600 C 98.083 36.040,97.543 36.400,97.200 36.400 C 96.857 36.400,96.317 36.760,96.000 37.200 C 95.683 37.640,95.143 38.000,94.800 38.000 C 94.457 38.000,93.917 38.360,93.600 38.800 C 93.283 39.240,92.833 39.600,92.600 39.600 C 92.367 39.600,91.917 39.960,91.600 40.400 C 91.283 40.840,90.780 41.200,90.483 41.200 C 90.186 41.200,89.692 41.425,89.385 41.700 C 88.091 42.861,87.614 43.200,87.276 43.200 C 87.080 43.200,86.354 43.740,85.663 44.400 C 84.972 45.060,84.208 45.600,83.964 45.600 C 83.720 45.600,83.017 46.140,82.400 46.800 C 81.783 47.460,81.099 48.000,80.880 48.000 C 80.661 48.000,79.562 48.900,78.439 50.000 C 77.315 51.100,76.304 52.000,76.193 52.000 C 75.462 52.000,56.000 71.676,56.000 72.415 C 56.000 72.655,55.100 73.729,54.000 74.800 C 52.900 75.871,52.000 76.868,52.000 77.014 C 52.000 77.160,51.460 77.783,50.800 78.400 C 50.140 79.017,49.600 79.737,49.600 80.000 C 49.600 80.263,49.060 80.983,48.400 81.600 C 47.740 82.217,47.200 82.920,47.200 83.164 C 47.200 83.408,46.660 84.172,46.000 84.863 C 45.340 85.554,44.800 86.322,44.800 86.571 C 44.800 86.820,44.440 87.283,44.000 87.600 C 43.560 87.917,43.200 88.497,43.200 88.888 C 43.200 89.280,43.038 89.600,42.839 89.600 C 42.641 89.600,42.289 90.142,42.058 90.805 C 41.827 91.468,41.359 92.117,41.019 92.248 C 40.679 92.379,40.400 92.787,40.400 93.154 C 40.400 93.522,40.040 94.083,39.600 94.400 C 39.160 94.717,38.800 95.297,38.800 95.688 C 38.800 96.080,38.620 96.400,38.400 96.400 C 38.180 96.400,38.000 96.720,38.000 97.112 C 38.000 97.503,37.640 98.083,37.200 98.400 C 36.760 98.717,36.400 99.297,36.400 99.688 C 36.400 100.080,36.220 100.400,36.000 100.400 C 35.780 100.400,35.600 100.720,35.600 101.112 C 35.600 101.503,35.240 102.083,34.800 102.400 C 34.360 102.717,34.000 103.297,34.000 103.688 C 34.000 104.080,33.820 104.400,33.600 104.400 C 33.380 104.400,33.200 104.760,33.200 105.200 C 33.200 105.640,33.020 106.000,32.800 106.000 C 32.580 106.000,32.400 106.360,32.400 106.800 C 32.400 107.240,32.254 107.600,32.075 107.600 C 31.896 107.600,31.502 108.230,31.200 109.000 C 30.898 109.770,30.504 110.400,30.325 110.400 C 30.146 110.400,30.000 110.760,30.000 111.200 C 30.000 111.640,29.820 112.000,29.600 112.000 C 29.380 112.000,29.200 112.360,29.200 112.800 C 29.200 113.240,29.020 113.600,28.800 113.600 C 28.580 113.600,28.400 113.960,28.400 114.400 C 28.400 114.840,28.220 115.200,28.000 115.200 C 27.780 115.200,27.600 115.560,27.600 116.000 C 27.600 116.440,27.420 116.800,27.200 116.800 C 26.980 116.800,26.800 117.149,26.800 117.576 C 26.800 118.003,26.643 118.450,26.452 118.568 C 26.261 118.686,25.768 119.957,25.357 121.391 C 24.946 122.826,24.473 124.000,24.305 124.000 C 24.137 124.000,24.000 124.450,24.000 125.000 C 24.000 125.550,23.820 126.000,23.600 126.000 C 23.380 126.000,23.200 126.450,23.200 127.000 C 23.200 127.550,23.020 128.000,22.800 128.000 C 22.580 128.000,22.400 128.450,22.400 129.000 C 22.400 129.550,22.220 130.000,22.000 130.000 C 21.780 130.000,21.600 130.540,21.600 131.200 C 21.600 131.860,21.420 132.400,21.200 132.400 C 20.980 132.400,20.800 132.940,20.800 133.600 C 20.800 134.260,20.620 134.800,20.400 134.800 C 20.180 134.800,20.000 135.340,20.000 136.000 C 20.000 136.660,19.820 137.200,19.600 137.200 C 19.380 137.200,19.200 137.740,19.200 138.400 C 19.200 139.060,19.020 139.600,18.800 139.600 C 18.580 139.600,18.400 140.219,18.400 140.976 C 18.400 141.733,18.220 142.464,18.000 142.600 C 17.780 142.736,17.600 143.467,17.600 144.224 C 17.600 144.981,17.420 145.600,17.200 145.600 C 16.980 145.600,16.800 146.320,16.800 147.200 C 16.800 148.080,16.620 148.800,16.400 148.800 C 16.180 148.800,16.000 149.520,16.000 150.400 C 16.000 151.280,15.820 152.000,15.600 152.000 C 15.380 152.000,15.200 152.720,15.200 153.600 C 15.200 154.480,15.020 155.200,14.800 155.200 C 14.580 155.200,14.400 155.920,14.400 156.800 C 14.400 157.680,14.220 158.400,14.000 158.400 C 13.780 158.400,13.600 159.300,13.600 160.400 C 13.600 161.500,13.420 162.400,13.200 162.400 C 12.980 162.400,12.800 163.379,12.800 164.576 C 12.800 165.773,12.620 166.864,12.400 167.000 C 12.180 167.136,12.000 168.407,12.000 169.824 C 12.000 171.275,11.825 172.400,11.600 172.400 C 11.365 172.400,11.200 173.792,11.200 175.776 C 11.200 177.633,11.020 179.264,10.800 179.400 C 10.250 179.740,10.250 220.260,10.800 220.600 C 11.020 220.736,11.200 222.367,11.200 224.224 C 11.200 226.208,11.365 227.600,11.600 227.600 C 11.825 227.600,12.000 228.725,12.000 230.176 C 12.000 231.593,12.180 232.864,12.400 233.000 C 12.620 233.136,12.800 234.216,12.800 235.400 C 12.800 236.584,12.980 237.664,13.200 237.800 C 13.420 237.936,13.600 238.847,13.600 239.824 C 13.600 240.801,13.780 241.600,14.000 241.600 C 14.220 241.600,14.400 242.320,14.400 243.200 C 14.400 244.080,14.580 244.800,14.800 244.800 C 15.020 244.800,15.200 245.520,15.200 246.400 C 15.200 247.280,15.380 248.000,15.600 248.000 C 15.820 248.000,16.000 248.720,16.000 249.600 C 16.000 250.480,16.180 251.200,16.400 251.200 C 16.620 251.200,16.800 251.920,16.800 252.800 C 16.800 253.680,16.980 254.400,17.200 254.400 C 17.420 254.400,17.600 255.019,17.600 255.776 C 17.600 256.533,17.780 257.264,18.000 257.400 C 18.220 257.536,18.400 258.267,18.400 259.024 C 18.400 259.781,18.580 260.400,18.800 260.400 C 19.020 260.400,19.200 260.940,19.200 261.600 C 19.200 262.260,19.380 262.800,19.600 262.800 C 19.820 262.800,20.000 263.340,20.000 264.000 C 20.000 264.660,20.180 265.200,20.400 265.200 C 20.620 265.200,20.800 265.740,20.800 266.400 C 20.800 267.060,20.980 267.600,21.200 267.600 C 21.420 267.600,21.600 268.140,21.600 268.800 C 21.600 269.460,21.780 270.000,22.000 270.000 C 22.220 270.000,22.400 270.450,22.400 271.000 C 22.400 271.550,22.580 272.000,22.800 272.000 C 23.020 272.000,23.200 272.450,23.200 273.000 C 23.200 273.550,23.380 274.000,23.600 274.000 C 23.820 274.000,24.000 274.450,24.000 275.000 C 24.000 275.550,24.137 276.000,24.305 276.000 C 24.473 276.000,24.946 277.174,25.357 278.609 C 25.768 280.043,26.261 281.314,26.452 281.432 C 26.643 281.550,26.800 281.997,26.800 282.424 C 26.800 282.851,26.980 283.200,27.200 283.200 C 27.420 283.200,27.600 283.560,27.600 284.000 C 27.600 284.440,27.780 284.800,28.000 284.800 C 28.220 284.800,28.400 285.160,28.400 285.600 C 28.400 286.040,28.580 286.400,28.800 286.400 C 29.020 286.400,29.200 286.760,29.200 287.200 C 29.200 287.640,29.380 288.000,29.600 288.000 C 29.820 288.000,30.000 288.360,30.000 288.800 C 30.000 289.240,30.146 289.600,30.325 289.600 C 30.504 289.600,30.898 290.230,31.200 291.000 C 31.502 291.770,31.896 292.400,32.075 292.400 C 32.254 292.400,32.400 292.760,32.400 293.200 C 32.400 293.640,32.580 294.000,32.800 294.000 C 33.020 294.000,33.200 294.360,33.200 294.800 C 33.200 295.240,33.380 295.600,33.600 295.600 C 33.820 295.600,34.000 295.920,34.000 296.312 C 34.000 296.703,34.360 297.283,34.800 297.600 C 35.240 297.917,35.600 298.497,35.600 298.888 C 35.600 299.280,35.780 299.600,36.000 299.600 C 36.220 299.600,36.400 299.920,36.400 300.312 C 36.400 300.703,36.760 301.283,37.200 301.600 C 37.640 301.917,38.000 302.497,38.000 302.888 C 38.000 303.280,38.180 303.600,38.400 303.600 C 38.620 303.600,38.800 303.920,38.800 304.312 C 38.800 304.703,39.160 305.283,39.600 305.600 C 40.040 305.917,40.400 306.478,40.400 306.846 C 40.400 307.213,40.679 307.621,41.019 307.752 C 41.359 307.883,41.827 308.532,42.058 309.195 C 42.289 309.858,42.641 310.400,42.839 310.400 C 43.038 310.400,43.200 310.720,43.200 311.112 C 43.200 311.503,43.560 312.083,44.000 312.400 C 44.440 312.717,44.800 313.180,44.800 313.429 C 44.800 313.678,45.340 314.446,46.000 315.137 C 46.660 315.828,47.200 316.592,47.200 316.836 C 47.200 317.080,47.740 317.783,48.400 318.400 C 49.060 319.017,49.600 319.737,49.600 320.000 C 49.600 320.263,50.140 320.983,50.800 321.600 C 51.460 322.217,52.000 322.840,52.000 322.986 C 52.000 323.132,52.900 324.129,54.000 325.200 C 55.100 326.271,56.000 327.345,56.000 327.585 C 56.000 328.324,75.462 348.000,76.193 348.000 C 76.304 348.000,77.315 348.900,78.439 350.000 C 79.562 351.100,80.661 352.000,80.880 352.000 C 81.099 352.000,81.783 352.540,82.400 353.200 C 83.017 353.860,83.720 354.400,83.964 354.400 C 84.208 354.400,84.972 354.940,85.663 355.600 C 86.354 356.260,87.085 356.800,87.288 356.800 C 87.491 356.800,87.908 357.025,88.215 357.300 C 89.579 358.523,89.999 358.800,90.495 358.800 C 90.786 358.800,91.283 359.160,91.600 359.600 C 91.917 360.040,92.367 360.400,92.600 360.400 C 92.833 360.400,93.283 360.760,93.600 361.200 C 93.917 361.640,94.457 362.000,94.800 362.000 C 95.143 362.000,95.683 362.360,96.000 362.800 C 96.317 363.240,96.857 363.600,97.200 363.600 C 97.543 363.600,98.083 363.960,98.400 364.400 C 98.717 364.840,99.297 365.200,99.688 365.200 C 100.080 365.200,100.400 365.380,100.400 365.600 C 100.400 365.820,100.720 366.000,101.112 366.000 C 101.503 366.000,102.083 366.360,102.400 366.800 C 102.717 367.240,103.297 367.600,103.688 367.600 C 104.080 367.600,104.400 367.780,104.400 368.000 C 104.400 368.220,104.720 368.400,105.112 368.400 C 105.503 368.400,106.083 368.760,106.400 369.200 C 106.717 369.640,107.297 370.000,107.688 370.000 C 108.080 370.000,108.400 370.146,108.400 370.325 C 108.400 370.504,109.030 370.898,109.800 371.200 C 110.570 371.502,111.200 371.896,111.200 372.075 C 111.200 372.254,111.560 372.400,112.000 372.400 C 112.440 372.400,112.800 372.580,112.800 372.800 C 112.800 373.020,113.160 373.200,113.600 373.200 C 114.040 373.200,114.400 373.380,114.400 373.600 C 114.400 373.820,114.649 374.000,114.954 374.000 C 115.259 374.000,116.024 374.269,116.654 374.598 C 117.284 374.926,118.115 375.196,118.500 375.198 C 118.885 375.199,119.200 375.380,119.200 375.600 C 119.200 375.820,119.560 376.000,120.000 376.000 C 120.440 376.000,120.800 376.180,120.800 376.400 C 120.800 376.620,121.160 376.800,121.600 376.800 C 122.040 376.800,122.400 376.980,122.400 377.200 C 122.400 377.420,122.760 377.600,123.200 377.600 C 123.640 377.600,124.000 377.780,124.000 378.000 C 124.000 378.220,124.450 378.400,125.000 378.400 C 125.550 378.400,126.000 378.580,126.000 378.800 C 126.000 379.020,126.360 379.200,126.800 379.200 C 127.240 379.200,127.600 379.380,127.600 379.600 C 127.600 379.820,128.140 380.000,128.800 380.000 C 129.460 380.000,130.000 380.180,130.000 380.400 C 130.000 380.620,130.349 380.800,130.776 380.800 C 131.203 380.800,131.664 380.980,131.800 381.200 C 131.936 381.420,132.487 381.600,133.024 381.600 C 133.561 381.600,134.000 381.780,134.000 382.000 C 134.000 382.220,134.540 382.400,135.200 382.400 C 135.860 382.400,136.400 382.580,136.400 382.800 C 136.400 383.020,136.940 383.200,137.600 383.200 C 138.260 383.200,138.800 383.380,138.800 383.600 C 138.800 383.820,139.340 384.000,140.000 384.000 C 140.660 384.000,141.200 384.180,141.200 384.400 C 141.200 384.620,141.740 384.800,142.400 384.800 C 143.060 384.800,143.600 384.980,143.600 385.200 C 143.600 385.420,144.230 385.600,145.000 385.600 C 145.770 385.600,146.400 385.780,146.400 386.000 C 146.400 386.220,147.120 386.400,148.000 386.400 C 148.880 386.400,149.600 386.580,149.600 386.800 C 149.600 387.020,150.320 387.200,151.200 387.200 C 152.080 387.200,152.800 387.380,152.800 387.600 C 152.800 387.820,153.520 388.000,154.400 388.000 C 155.280 388.000,156.000 388.180,156.000 388.400 C 156.000 388.620,156.720 388.800,157.600 388.800 C 158.480 388.800,159.200 388.961,159.200 389.158 C 159.200 389.355,159.875 389.616,160.700 389.738 C 161.525 389.860,163.190 390.147,164.400 390.376 C 168.511 391.154,171.795 391.574,173.876 391.587 C 175.018 391.594,176.064 391.780,176.200 392.000 C 176.336 392.220,177.967 392.400,179.824 392.400 C 181.808 392.400,183.200 392.565,183.200 392.800 C 183.200 393.060,189.067 393.200,200.000 393.200 C 210.933 393.200,216.800 393.060,216.800 392.800 C 216.800 392.565,218.192 392.400,220.176 392.400 C 222.033 392.400,223.664 392.220,223.800 392.000 C 223.936 391.780,224.982 391.594,226.124 391.587 C 228.205 391.574,231.489 391.154,235.600 390.376 C 236.810 390.147,238.475 389.860,239.300 389.738 C 240.125 389.616,240.800 389.355,240.800 389.158 C 240.800 388.961,241.520 388.800,242.400 388.800 C 243.280 388.800,244.000 388.620,244.000 388.400 C 244.000 388.180,244.720 388.000,245.600 388.000 C 246.480 388.000,247.200 387.820,247.200 387.600 C 247.200 387.380,247.920 387.200,248.800 387.200 C 249.680 387.200,250.400 387.020,250.400 386.800 C 250.400 386.580,251.120 386.400,252.000 386.400 C 252.880 386.400,253.600 386.220,253.600 386.000 C 253.600 385.780,254.230 385.600,255.000 385.600 C 255.770 385.600,256.400 385.420,256.400 385.200 C 256.400 384.980,256.940 384.800,257.600 384.800 C 258.260 384.800,258.800 384.620,258.800 384.400 C 258.800 384.180,259.340 384.000,260.000 384.000 C 260.660 384.000,261.200 383.820,261.200 383.600 C 261.200 383.380,261.740 383.200,262.400 383.200 C 263.060 383.200,263.600 383.020,263.600 382.800 C 263.600 382.580,264.140 382.400,264.800 382.400 C 265.460 382.400,266.000 382.220,266.000 382.000 C 266.000 381.780,266.439 381.600,266.976 381.600 C 267.513 381.600,268.064 381.420,268.200 381.200 C 268.336 380.980,268.797 380.800,269.224 380.800 C 269.651 380.800,270.000 380.620,270.000 380.400 C 270.000 380.180,270.540 380.000,271.200 380.000 C 271.860 380.000,272.400 379.820,272.400 379.600 C 272.400 379.380,272.760 379.200,273.200 379.200 C 273.640 379.200,274.000 379.020,274.000 378.800 C 274.000 378.580,274.450 378.400,275.000 378.400 C 275.550 378.400,276.000 378.220,276.000 378.000 C 276.000 377.780,276.360 377.600,276.800 377.600 C 277.240 377.600,277.600 377.420,277.600 377.200 C 277.600 376.980,277.960 376.800,278.400 376.800 C 278.840 376.800,279.200 376.620,279.200 376.400 C 279.200 376.180,279.560 376.000,280.000 376.000 C 280.440 376.000,280.800 375.820,280.800 375.600 C 280.800 375.380,281.115 375.199,281.500 375.198 C 281.885 375.196,282.716 374.926,283.346 374.598 C 283.976 374.269,284.741 374.000,285.046 374.000 C 285.351 374.000,285.600 373.820,285.600 373.600 C 285.600 373.380,285.960 373.200,286.400 373.200 C 286.840 373.200,287.200 373.020,287.200 372.800 C 287.200 372.580,287.560 372.400,288.000 372.400 C 288.440 372.400,288.800 372.254,288.800 372.075 C 288.800 371.896,289.430 371.502,290.200 371.200 C 290.970 370.898,291.600 370.504,291.600 370.325 C 291.600 370.146,291.920 370.000,292.312 370.000 C 292.703 370.000,293.283 369.640,293.600 369.200 C 293.917 368.760,294.497 368.400,294.888 368.400 C 295.280 368.400,295.600 368.220,295.600 368.000 C 295.600 367.780,295.920 367.600,296.312 367.600 C 296.703 367.600,297.283 367.240,297.600 366.800 C 297.917 366.360,298.497 366.000,298.888 366.000 C 299.280 366.000,299.600 365.820,299.600 365.600 C 299.600 365.380,299.920 365.200,300.312 365.200 C 300.703 365.200,301.283 364.840,301.600 364.400 C 301.917 363.960,302.457 363.600,302.800 363.600 C 303.143 363.600,303.683 363.240,304.000 362.800 C 304.317 362.360,304.857 362.000,305.200 362.000 C 305.543 362.000,306.083 361.640,306.400 361.200 C 306.717 360.760,307.167 360.400,307.400 360.400 C 307.633 360.400,308.083 360.040,308.400 359.600 C 308.717 359.160,309.220 358.800,309.517 358.800 C 309.814 358.800,310.308 358.575,310.615 358.300 C 311.909 357.139,312.386 356.800,312.724 356.800 C 312.920 356.800,313.646 356.260,314.337 355.600 C 315.028 354.940,315.792 354.400,316.036 354.400 C 316.280 354.400,316.983 353.860,317.600 353.200 C 318.217 352.540,318.901 352.000,319.120 352.000 C 319.339 352.000,320.438 351.100,321.561 350.000 C 322.685 348.900,323.696 348.000,323.807 348.000 C 324.538 348.000,344.000 328.324,344.000 327.585 C 344.000 327.345,344.900 326.271,346.000 325.200 C 347.100 324.129,348.000 323.132,348.000 322.986 C 348.000 322.840,348.540 322.217,349.200 321.600 C 349.860 320.983,350.400 320.263,350.400 320.000 C 350.400 319.737,350.940 319.017,351.600 318.400 C 352.260 317.783,352.800 317.080,352.800 316.836 C 352.800 316.592,353.340 315.828,354.000 315.137 C 354.660 314.446,355.200 313.678,355.200 313.429 C 355.200 313.180,355.560 312.717,356.000 312.400 C 356.440 312.083,356.800 311.503,356.800 311.112 C 356.800 310.720,356.962 310.400,357.161 310.400 C 357.359 310.400,357.711 309.858,357.942 309.195 C 358.173 308.532,358.641 307.883,358.981 307.752 C 359.321 307.621,359.600 307.213,359.600 306.846 C 359.600 306.478,359.960 305.917,360.400 305.600 C 360.840 305.283,361.200 304.703,361.200 304.312 C 361.200 303.920,361.380 303.600,361.600 303.600 C 361.820 303.600,362.000 303.280,362.000 302.888 C 362.000 302.497,362.360 301.917,362.800 301.600 C 363.240 301.283,363.600 300.703,363.600 300.312 C 363.600 299.920,363.780 299.600,364.000 299.600 C 364.220 299.600,364.400 299.280,364.400 298.888 C 364.400 298.497,364.760 297.917,365.200 297.600 C 365.640 297.283,366.000 296.703,366.000 296.312 C 366.000 295.920,366.180 295.600,366.400 295.600 C 366.620 295.600,366.800 295.240,366.800 294.800 C 366.800 294.360,366.980 294.000,367.200 294.000 C 367.420 294.000,367.600 293.640,367.600 293.200 C 367.600 292.760,367.746 292.400,367.925 292.400 C 368.104 292.400,368.498 291.770,368.800 291.000 C 369.102 290.230,369.496 289.600,369.675 289.600 C 369.854 289.600,370.000 289.240,370.000 288.800 C 370.000 288.360,370.180 288.000,370.400 288.000 C 370.620 288.000,370.800 287.640,370.800 287.200 C 370.800 286.760,370.980 286.400,371.200 286.400 C 371.420 286.400,371.600 286.040,371.600 285.600 C 371.600 285.160,371.780 284.800,372.000 284.800 C 372.220 284.800,372.400 284.440,372.400 284.000 C 372.400 283.560,372.580 283.200,372.800 283.200 C 373.020 283.200,373.200 282.851,373.200 282.424 C 373.200 281.997,373.357 281.550,373.548 281.432 C 373.739 281.314,374.232 280.043,374.643 278.609 C 375.054 277.174,375.527 276.000,375.695 276.000 C 375.863 276.000,376.000 275.550,376.000 275.000 C 376.000 274.450,376.180 274.000,376.400 274.000 C 376.620 274.000,376.800 273.651,376.800 273.224 C 376.800 272.797,376.980 272.336,377.200 272.200 C 377.420 272.064,377.600 271.513,377.600 270.976 C 377.600 270.439,377.780 270.000,378.000 270.000 C 378.220 270.000,378.400 269.460,378.400 268.800 C 378.400 268.140,378.580 267.600,378.800 267.600 C 379.020 267.600,379.200 267.060,379.200 266.400 C 379.200 265.740,379.380 265.200,379.600 265.200 C 379.820 265.200,380.000 264.660,380.000 264.000 C 380.000 263.340,380.180 262.800,380.400 262.800 C 380.620 262.800,380.800 262.260,380.800 261.600 C 380.800 260.940,380.980 260.400,381.200 260.400 C 381.420 260.400,381.600 259.781,381.600 259.024 C 381.600 258.267,381.780 257.536,382.000 257.400 C 382.220 257.264,382.400 256.533,382.400 255.776 C 382.400 255.019,382.580 254.400,382.800 254.400 C 383.020 254.400,383.200 253.680,383.200 252.800 C 383.200 251.920,383.380 251.200,383.600 251.200 C 383.820 251.200,384.000 250.480,384.000 249.600 C 384.000 248.720,384.180 248.000,384.400 248.000 C 384.620 248.000,384.800 247.280,384.800 246.400 C 384.800 245.520,384.980 244.800,385.200 244.800 C 385.420 244.800,385.600 244.080,385.600 243.200 C 385.600 242.320,385.780 241.600,386.000 241.600 C 386.220 241.600,386.400 240.801,386.400 239.824 C 386.400 238.847,386.580 237.936,386.800 237.800 C 387.020 237.664,387.200 236.584,387.200 235.400 C 387.200 234.216,387.380 233.136,387.600 233.000 C 387.820 232.864,388.000 231.593,388.000 230.176 C 388.000 228.725,388.175 227.600,388.400 227.600 C 388.635 227.600,388.800 226.208,388.800 224.224 C 388.800 222.367,388.980 220.736,389.200 220.600 C 389.458 220.440,389.600 213.137,389.600 200.000 C 389.600 186.863,389.458 179.560,389.200 179.400 C 388.980 179.264,388.800 177.633,388.800 175.776 C 388.800 173.792,388.635 172.400,388.400 172.400 C 388.175 172.400,388.000 171.275,388.000 169.824 C 388.000 168.407,387.820 167.136,387.600 167.000 C 387.380 166.864,387.200 165.784,387.200 164.600 C 387.200 163.416,387.020 162.336,386.800 162.200 C 386.580 162.064,386.400 161.153,386.400 160.176 C 386.400 159.199,386.220 158.400,386.000 158.400 C 385.780 158.400,385.600 157.680,385.600 156.800 C 385.600 155.920,385.420 155.200,385.200 155.200 C 384.980 155.200,384.800 154.480,384.800 153.600 C 384.800 152.720,384.620 152.000,384.400 152.000 C 384.180 152.000,384.000 151.280,384.000 150.400 C 384.000 149.520,383.820 148.800,383.600 148.800 C 383.380 148.800,383.200 148.080,383.200 147.200 C 383.200 146.320,383.020 145.600,382.800 145.600 C 382.580 145.600,382.400 144.981,382.400 144.224 C 382.400 143.467,382.220 142.736,382.000 142.600 C 381.780 142.464,381.600 141.733,381.600 140.976 C 381.600 140.219,381.420 139.600,381.200 139.600 C 380.980 139.600,380.800 139.060,380.800 138.400 C 380.800 137.740,380.620 137.200,380.400 137.200 C 380.180 137.200,380.000 136.660,380.000 136.000 C 380.000 135.340,379.820 134.800,379.600 134.800 C 379.380 134.800,379.200 134.260,379.200 133.600 C 379.200 132.940,379.020 132.400,378.800 132.400 C 378.580 132.400,378.400 131.860,378.400 131.200 C 378.400 130.540,378.220 130.000,378.000 130.000 C 377.780 130.000,377.600 129.561,377.600 129.024 C 377.600 128.487,377.420 127.936,377.200 127.800 C 376.980 127.664,376.800 127.203,376.800 126.776 C 376.800 126.349,376.620 126.000,376.400 126.000 C 376.180 126.000,376.000 125.550,376.000 125.000 C 376.000 124.450,375.863 124.000,375.695 124.000 C 375.527 124.000,375.054 122.826,374.643 121.391 C 374.232 119.957,373.739 118.686,373.548 118.568 C 373.357 118.450,373.200 118.003,373.200 117.576 C 373.200 117.149,373.020 116.800,372.800 116.800 C 372.580 116.800,372.400 116.440,372.400 116.000 C 372.400 115.560,372.220 115.200,372.000 115.200 C 371.780 115.200,371.600 114.840,371.600 114.400 C 371.600 113.960,371.420 113.600,371.200 113.600 C 370.980 113.600,370.800 113.240,370.800 112.800 C 370.800 112.360,370.620 112.000,370.400 112.000 C 370.180 112.000,370.000 111.640,370.000 111.200 C 370.000 110.760,369.854 110.400,369.675 110.400 C 369.496 110.400,369.102 109.770,368.800 109.000 C 368.498 108.230,368.104 107.600,367.925 107.600 C 367.746 107.600,367.600 107.240,367.600 106.800 C 367.600 106.360,367.420 106.000,367.200 106.000 C 366.980 106.000,366.800 105.640,366.800 105.200 C 366.800 104.760,366.620 104.400,366.400 104.400 C 366.180 104.400,366.000 104.080,366.000 103.688 C 366.000 103.297,365.640 102.717,365.200 102.400 C 364.760 102.083,364.400 101.503,364.400 101.112 C 364.400 100.720,364.220 100.400,364.000 100.400 C 363.780 100.400,363.600 100.080,363.600 99.688 C 363.600 99.297,363.240 98.717,362.800 98.400 C 362.360 98.083,362.000 97.503,362.000 97.112 C 362.000 96.720,361.820 96.400,361.600 96.400 C 361.380 96.400,361.200 96.080,361.200 95.688 C 361.200 95.297,360.840 94.717,360.400 94.400 C 359.960 94.083,359.600 93.522,359.600 93.154 C 359.600 92.787,359.321 92.379,358.981 92.248 C 358.641 92.117,358.173 91.468,357.942 90.805 C 357.711 90.142,357.359 89.600,357.161 89.600 C 356.962 89.600,356.800 89.280,356.800 88.888 C 356.800 88.497,356.440 87.917,356.000 87.600 C 355.560 87.283,355.200 86.820,355.200 86.571 C 355.200 86.322,354.660 85.554,354.000 84.863 C 353.340 84.172,352.800 83.408,352.800 83.164 C 352.800 82.920,352.260 82.217,351.600 81.600 C 350.940 80.983,350.400 80.263,350.400 80.000 C 350.400 79.737,349.860 79.017,349.200 78.400 C 348.540 77.783,348.000 77.160,348.000 77.014 C 348.000 76.868,347.100 75.871,346.000 74.800 C 344.900 73.729,344.000 72.655,344.000 72.415 C 344.000 71.676,324.538 52.000,323.807 52.000 C 323.696 52.000,322.685 51.100,321.561 50.000 C 320.438 48.900,319.339 48.000,319.120 48.000 C 318.901 48.000,318.217 47.460,317.600 46.800 C 316.983 46.140,316.280 45.600,316.036 45.600 C 315.792 45.600,315.028 45.060,314.337 44.400 C 313.646 43.740,312.915 43.200,312.712 43.200 C 312.509 43.200,312.092 42.975,311.785 42.700 C 310.421 41.477,310.001 41.200,309.505 41.200 C 309.214 41.200,308.717 40.840,308.400 40.400 C 308.083 39.960,307.633 39.600,307.400 39.600 C 307.167 39.600,306.717 39.240,306.400 38.800 C 306.083 38.360,305.543 38.000,305.200 38.000 C 304.857 38.000,304.317 37.640,304.000 37.200 C 303.683 36.760,303.143 36.400,302.800 36.400 C 302.457 36.400,301.917 36.040,301.600 35.600 C 301.283 35.160,300.703 34.800,300.312 34.800 C 299.920 34.800,299.600 34.620,299.600 34.400 C 299.600 34.180,299.280 34.000,298.888 34.000 C 298.497 34.000,297.917 33.640,297.600 33.200 C 297.283 32.760,296.703 32.400,296.312 32.400 C 295.920 32.400,295.600 32.220,295.600 32.000 C 295.600 31.780,295.280 31.600,294.888 31.600 C 294.497 31.600,293.917 31.240,293.600 30.800 C 293.283 30.360,292.703 30.000,292.312 30.000 C 291.920 30.000,291.600 29.854,291.600 29.675 C 291.600 29.496,290.970 29.102,290.200 28.800 C 289.430 28.498,288.800 28.104,288.800 27.925 C 288.800 27.746,288.440 27.600,288.000 27.600 C 287.560 27.600,287.200 27.420,287.200 27.200 C 287.200 26.980,286.840 26.800,286.400 26.800 C 285.960 26.800,285.600 26.620,285.600 26.400 C 285.600 26.180,285.351 26.000,285.046 26.000 C 284.741 26.000,283.976 25.731,283.346 25.402 C 282.716 25.074,281.885 24.804,281.500 24.802 C 281.115 24.801,280.800 24.620,280.800 24.400 C 280.800 24.180,280.440 24.000,280.000 24.000 C 279.560 24.000,279.200 23.820,279.200 23.600 C 279.200 23.380,278.840 23.200,278.400 23.200 C 277.960 23.200,277.600 23.020,277.600 22.800 C 277.600 22.580,277.240 22.400,276.800 22.400 C 276.360 22.400,276.000 22.220,276.000 22.000 C 276.000 21.780,275.550 21.600,275.000 21.600 C 274.450 21.600,274.000 21.420,274.000 21.200 C 274.000 20.980,273.640 20.800,273.200 20.800 C 272.760 20.800,272.400 20.620,272.400 20.400 C 272.400 20.180,271.860 20.000,271.200 20.000 C 270.540 20.000,270.000 19.820,270.000 19.600 C 270.000 19.380,269.651 19.200,269.224 19.200 C 268.797 19.200,268.336 19.020,268.200 18.800 C 268.064 18.580,267.513 18.400,266.976 18.400 C 266.439 18.400,266.000 18.220,266.000 18.000 C 266.000 17.780,265.460 17.600,264.800 17.600 C 264.140 17.600,263.600 17.420,263.600 17.200 C 263.600 16.980,263.060 16.800,262.400 16.800 C 261.740 16.800,261.200 16.620,261.200 16.400 C 261.200 16.180,260.660 16.000,260.000 16.000 C 259.340 16.000,258.800 15.820,258.800 15.600 C 258.800 15.380,258.260 15.200,257.600 15.200 C 256.940 15.200,256.400 15.020,256.400 14.800 C 256.400 14.580,255.770 14.400,255.000 14.400 C 254.230 14.400,253.600 14.220,253.600 14.000 C 253.600 13.780,252.880 13.600,252.000 13.600 C 251.120 13.600,250.400 13.420,250.400 13.200 C 250.400 12.980,249.680 12.800,248.800 12.800 C 247.920 12.800,247.200 12.620,247.200 12.400 C 247.200 12.180,246.480 12.000,245.600 12.000 C 244.720 12.000,244.000 11.820,244.000 11.600 C 244.000 11.380,243.280 11.200,242.400 11.200 C 241.520 11.200,240.800 11.039,240.800 10.842 C 240.800 10.645,240.125 10.384,239.300 10.262 C 238.475 10.140,236.810 9.853,235.600 9.624 C 231.489 8.846,228.205 8.426,226.124 8.413 C 224.982 8.406,223.936 8.220,223.800 8.000 C 223.664 7.780,222.033 7.600,220.176 7.600 C 218.192 7.600,216.800 7.435,216.800 7.200 C 216.800 6.940,210.933 6.800,200.000 6.800 C 189.067 6.800,183.200 6.940,183.200 7.200 M216.800 19.387 C 228.188 20.536,240.851 22.862,248.600 25.229 C 251.609 26.148,259.880 28.873,260.600 29.181 C 261.040 29.370,263.380 30.290,265.800 31.225 C 271.457 33.411,281.880 38.403,287.000 41.378 C 289.200 42.657,291.621 44.056,292.379 44.489 C 306.865 52.748,327.042 70.467,338.275 84.794 C 338.537 85.127,339.531 86.390,340.485 87.600 C 344.084 92.167,350.099 100.958,352.459 105.100 C 352.867 105.815,353.587 107.075,354.061 107.900 C 360.525 119.166,366.174 132.146,369.600 143.600 C 370.093 145.250,370.634 147.050,370.802 147.600 C 371.386 149.515,372.523 153.976,373.147 156.800 C 373.365 157.790,373.725 159.410,373.945 160.400 C 378.504 180.848,378.696 206.830,374.454 229.000 C 374.243 230.100,373.881 231.990,373.650 233.200 C 373.418 234.410,372.848 236.840,372.382 238.600 C 371.917 240.360,371.391 242.430,371.214 243.200 C 371.036 243.970,370.576 245.590,370.191 246.800 C 368.439 252.301,367.130 256.265,366.822 257.000 C 366.637 257.440,365.635 259.960,364.595 262.600 C 362.735 267.316,357.029 279.263,354.947 282.800 C 354.364 283.790,353.576 285.140,353.197 285.800 C 342.670 304.106,324.828 324.328,308.199 336.799 C 306.879 337.788,305.710 338.708,305.600 338.842 C 305.236 339.287,292.233 347.888,290.400 348.897 C 289.410 349.442,287.610 350.475,286.400 351.193 C 284.427 352.365,273.666 357.698,269.940 359.352 C 263.302 362.298,251.374 366.277,243.000 368.340 C 242.120 368.557,240.680 368.912,239.800 369.131 C 236.862 369.859,230.918 370.991,227.000 371.568 C 208.154 374.346,192.042 374.347,173.000 371.573 C 166.945 370.691,161.167 369.478,154.200 367.627 C 146.759 365.650,135.742 361.873,130.060 359.352 C 126.334 357.698,115.573 352.365,113.600 351.193 C 112.390 350.475,110.590 349.442,109.600 348.897 C 107.767 347.888,94.764 339.287,94.400 338.842 C 94.290 338.708,93.121 337.788,91.801 336.799 C 75.172 324.328,57.330 304.106,46.803 285.800 C 46.424 285.140,45.636 283.790,45.053 282.800 C 42.971 279.263,37.265 267.316,35.405 262.600 C 34.365 259.960,33.363 257.440,33.178 257.000 C 32.870 256.265,31.561 252.301,29.809 246.800 C 29.424 245.590,28.964 243.970,28.786 243.200 C 28.609 242.430,28.082 240.360,27.616 238.600 C 26.800 235.517,26.614 234.661,25.615 229.400 C 21.512 207.776,21.393 187.072,25.242 164.600 C 25.635 162.310,25.862 161.202,26.825 156.900 C 27.423 154.231,28.689 149.268,29.198 147.600 C 29.366 147.050,29.907 145.250,30.400 143.600 C 31.813 138.876,33.780 133.478,36.304 127.400 C 39.073 120.729,42.145 114.513,45.939 107.900 C 46.413 107.075,47.133 105.815,47.541 105.100 C 49.901 100.958,55.916 92.167,59.515 87.600 C 60.469 86.390,61.463 85.127,61.725 84.794 C 72.958 70.467,93.135 52.748,107.621 44.489 C 108.379 44.056,110.800 42.657,113.000 41.378 C 118.120 38.403,128.543 33.411,134.200 31.225 C 136.620 30.290,138.960 29.371,139.400 29.184 C 148.948 25.115,167.591 20.976,184.200 19.239 C 189.805 18.653,210.454 18.747,216.800 19.387 " stroke="none" fill="#040405" fill-rule="evenodd"></path><path id="path2" d="M190.400 19.444 C 177.728 20.260,171.146 21.168,160.100 23.622 C 159.055 23.854,157.613 24.144,156.896 24.266 C 156.179 24.388,155.494 24.649,155.373 24.844 C 155.252 25.040,154.722 25.200,154.195 25.200 C 153.669 25.200,152.824 25.361,152.319 25.558 C 151.813 25.755,150.590 26.133,149.600 26.397 C 148.610 26.662,147.487 27.040,147.105 27.239 C 146.723 27.438,146.059 27.600,145.629 27.600 C 145.199 27.600,144.736 27.780,144.600 28.000 C 144.464 28.220,143.949 28.400,143.456 28.400 C 142.963 28.400,142.389 28.549,142.180 28.730 C 141.971 28.912,140.990 29.308,140.000 29.611 C 133.519 31.590,119.388 38.123,112.000 42.555 C 111.010 43.149,109.885 43.738,109.500 43.864 C 109.115 43.990,108.800 44.252,108.800 44.447 C 108.800 44.641,108.614 44.800,108.386 44.800 C 107.607 44.800,92.722 54.983,90.563 56.993 C 90.323 57.217,89.530 57.850,88.801 58.400 C 82.735 62.975,71.952 73.508,65.457 81.203 C 60.785 86.737,60.894 86.603,58.678 89.600 C 57.620 91.030,56.462 92.557,56.103 92.992 C 55.177 94.116,48.000 105.132,48.000 105.430 C 48.000 105.566,47.664 106.154,47.253 106.738 C 45.960 108.576,40.254 119.538,38.684 123.200 C 38.354 123.970,37.721 125.410,37.278 126.400 C 34.643 132.279,30.593 144.152,28.819 151.200 C 28.625 151.970,28.283 153.320,28.058 154.200 C 21.891 178.401,21.431 207.000,26.800 232.500 C 27.905 237.750,27.838 237.479,29.980 245.400 C 31.124 249.635,34.516 259.320,36.036 262.696 C 36.456 263.628,36.800 264.485,36.800 264.600 C 36.800 265.141,43.541 279.091,45.108 281.793 C 48.263 287.233,51.839 293.081,52.694 294.200 C 52.862 294.420,53.980 296.040,55.177 297.800 C 56.375 299.560,57.463 301.090,57.596 301.200 C 57.730 301.310,58.271 302.030,58.800 302.800 C 59.329 303.570,59.865 304.290,59.991 304.400 C 60.117 304.510,60.841 305.410,61.600 306.400 C 62.359 307.390,63.080 308.290,63.203 308.400 C 63.326 308.510,64.476 309.860,65.758 311.400 C 69.575 315.984,80.106 326.517,84.963 330.609 C 89.675 334.579,94.208 338.115,97.000 339.998 C 98.100 340.740,99.090 341.461,99.200 341.600 C 99.600 342.106,103.155 344.400,103.539 344.400 C 103.756 344.400,103.993 344.543,104.067 344.717 C 104.488 345.718,125.191 356.873,130.300 358.851 C 130.795 359.043,131.695 359.404,132.300 359.654 C 132.905 359.903,133.760 360.239,134.200 360.400 C 135.333 360.815,136.834 361.420,138.000 361.932 C 141.230 363.350,155.478 367.606,160.000 368.503 C 160.550 368.612,162.440 368.993,164.200 369.349 C 177.591 372.062,186.792 373.000,200.000 373.000 C 213.208 373.000,222.409 372.062,235.800 369.349 C 237.560 368.993,239.450 368.612,240.000 368.503 C 244.398 367.630,258.564 363.415,261.900 361.986 C 262.395 361.774,263.205 361.444,263.700 361.254 C 264.195 361.063,265.095 360.703,265.700 360.454 C 266.305 360.204,267.205 359.844,267.700 359.654 C 270.017 358.762,271.070 358.272,278.000 354.862 C 285.029 351.404,295.647 345.397,295.933 344.717 C 296.007 344.543,296.244 344.400,296.461 344.400 C 296.845 344.400,300.400 342.106,300.800 341.600 C 300.910 341.461,301.900 340.740,303.000 339.998 C 305.792 338.115,310.325 334.579,315.037 330.609 C 319.894 326.517,330.425 315.984,334.242 311.400 C 335.524 309.860,336.674 308.510,336.797 308.400 C 336.920 308.290,337.641 307.390,338.400 306.400 C 339.159 305.410,339.883 304.510,340.009 304.400 C 340.135 304.290,340.671 303.570,341.200 302.800 C 341.729 302.030,342.270 301.310,342.404 301.200 C 342.537 301.090,343.625 299.560,344.823 297.800 C 346.020 296.040,347.138 294.420,347.306 294.200 C 348.161 293.081,351.737 287.233,354.892 281.793 C 356.459 279.091,363.200 265.141,363.200 264.600 C 363.200 264.485,363.544 263.628,363.964 262.696 C 365.484 259.320,368.876 249.635,370.020 245.400 C 372.162 237.479,372.095 237.750,373.200 232.500 C 378.569 207.000,378.109 178.401,371.942 154.200 C 371.717 153.320,371.375 151.970,371.181 151.200 C 369.407 144.152,365.357 132.279,362.722 126.400 C 362.279 125.410,361.646 123.970,361.316 123.200 C 359.746 119.538,354.040 108.576,352.747 106.738 C 352.336 106.154,352.000 105.566,352.000 105.430 C 352.000 105.132,344.823 94.116,343.897 92.992 C 343.538 92.557,342.380 91.030,341.322 89.600 C 339.106 86.603,339.215 86.737,334.543 81.203 C 328.048 73.508,317.265 62.975,311.199 58.400 C 310.470 57.850,309.677 57.217,309.437 56.993 C 307.278 54.983,292.393 44.800,291.614 44.800 C 291.386 44.800,291.200 44.641,291.200 44.447 C 291.200 44.252,290.885 43.990,290.500 43.864 C 290.115 43.738,288.990 43.149,288.000 42.555 C 281.017 38.366,268.239 32.397,261.200 30.035 C 259.770 29.555,258.287 28.991,257.905 28.781 C 257.523 28.571,256.859 28.400,256.429 28.400 C 255.999 28.400,255.536 28.220,255.400 28.000 C 255.264 27.780,254.724 27.600,254.200 27.600 C 253.676 27.600,253.149 27.441,253.029 27.246 C 252.908 27.051,252.313 26.796,251.705 26.679 C 251.097 26.562,249.970 26.281,249.200 26.055 C 240.171 23.409,231.191 21.586,221.400 20.414 C 218.408 20.055,199.879 18.782,199.000 18.875 C 198.780 18.898,194.910 19.154,190.400 19.444 M186.227 80.407 C 194.830 82.713,202.668 89.098,205.856 96.400 C 207.205 99.488,207.384 100.018,208.374 103.846 C 208.613 104.769,208.800 109.384,208.800 114.346 L 208.800 123.200 251.394 123.200 C 281.801 123.200,294.534 123.330,295.894 123.654 C 322.748 130.056,322.752 167.885,295.900 174.814 L 294.000 175.304 294.000 218.192 C 294.000 241.866,293.842 261.600,293.647 262.240 C 293.452 262.878,293.056 264.210,292.765 265.200 C 290.805 271.881,284.587 278.001,277.206 280.513 L 274.600 281.400 215.800 281.515 C 148.150 281.648,152.412 281.928,149.996 277.193 C 148.731 274.713,148.745 106.483,150.011 101.760 C 152.280 93.290,158.058 86.261,165.821 82.526 C 168.023 81.466,169.006 81.120,172.800 80.069 C 175.445 79.337,182.937 79.525,186.227 80.407 M134.769 124.431 L 136.000 125.662 135.991 201.531 C 135.981 285.014,136.176 278.300,133.726 279.553 C 132.199 280.334,88.682 280.167,87.149 279.373 C 84.648 278.080,84.800 283.099,84.800 201.639 C 84.800 123.196,84.737 125.733,86.713 124.102 L 87.800 123.204 110.669 123.202 L 133.538 123.200 134.769 124.431 " stroke="none" fill="#046bfb" fill-rule="evenodd"></path><path id="path3" d="M184.200 19.239 C 167.591 20.976,148.948 25.115,139.400 29.184 C 138.960 29.371,136.620 30.290,134.200 31.225 C 128.543 33.411,118.120 38.403,113.000 41.378 C 110.800 42.657,108.379 44.056,107.621 44.489 C 93.135 52.748,72.958 70.467,61.725 84.794 C 61.463 85.127,60.469 86.390,59.515 87.600 C 55.916 92.167,49.901 100.958,47.541 105.100 C 47.133 105.815,46.413 107.075,45.939 107.900 C 39.475 119.166,33.826 132.146,30.400 143.600 C 29.907 145.250,29.366 147.050,29.198 147.600 C 28.689 149.268,27.423 154.231,26.825 156.900 C 25.862 161.202,25.635 162.310,25.242 164.600 C 21.393 187.072,21.512 207.776,25.615 229.400 C 26.614 234.661,26.800 235.517,27.616 238.600 C 28.082 240.360,28.609 242.430,28.786 243.200 C 28.964 243.970,29.424 245.590,29.809 246.800 C 31.561 252.301,32.870 256.265,33.178 257.000 C 33.363 257.440,34.365 259.960,35.405 262.600 C 37.265 267.316,42.971 279.263,45.053 282.800 C 45.636 283.790,46.424 285.140,46.803 285.800 C 57.330 304.106,75.172 324.328,91.801 336.799 C 93.121 337.788,94.290 338.708,94.400 338.842 C 94.764 339.287,107.767 347.888,109.600 348.897 C 110.590 349.442,112.390 350.475,113.600 351.193 C 115.573 352.365,126.334 357.698,130.060 359.352 C 135.742 361.873,146.759 365.650,154.200 367.627 C 159.964 369.158,161.446 369.492,168.400 370.821 C 184.329 373.866,204.171 374.452,221.000 372.376 C 228.103 371.499,235.152 370.283,239.800 369.131 C 240.680 368.912,242.120 368.557,243.000 368.340 C 251.374 366.277,263.302 362.298,269.940 359.352 C 273.666 357.698,284.427 352.365,286.400 351.193 C 287.610 350.475,289.410 349.442,290.400 348.897 C 292.233 347.888,305.236 339.287,305.600 338.842 C 305.710 338.708,306.879 337.788,308.199 336.799 C 324.828 324.328,342.670 304.106,353.197 285.800 C 353.576 285.140,354.364 283.790,354.947 282.800 C 357.029 279.263,362.735 267.316,364.595 262.600 C 365.635 259.960,366.637 257.440,366.822 257.000 C 367.130 256.265,368.439 252.301,370.191 246.800 C 370.576 245.590,371.036 243.970,371.214 243.200 C 371.391 242.430,371.917 240.360,372.382 238.600 C 372.848 236.840,373.418 234.410,373.650 233.200 C 373.881 231.990,374.243 230.100,374.454 229.000 C 378.696 206.830,378.504 180.848,373.945 160.400 C 373.725 159.410,373.365 157.790,373.147 156.800 C 372.523 153.976,371.386 149.515,370.802 147.600 C 370.634 147.050,370.093 145.250,369.600 143.600 C 368.187 138.876,366.220 133.478,363.696 127.400 C 360.927 120.729,357.855 114.513,354.061 107.900 C 353.587 107.075,352.867 105.815,352.459 105.100 C 350.099 100.958,344.084 92.167,340.485 87.600 C 339.531 86.390,338.537 85.127,338.275 84.794 C 327.042 70.467,306.865 52.748,292.379 44.489 C 291.621 44.056,289.200 42.657,287.000 41.378 C 281.880 38.403,271.457 33.411,265.800 31.225 C 263.380 30.290,261.040 29.370,260.600 29.181 C 259.880 28.873,251.609 26.148,248.600 25.229 C 237.315 21.782,216.999 18.730,206.200 18.859 C 201.498 18.915,201.567 18.927,209.600 19.444 C 225.432 20.463,236.329 22.283,249.200 26.055 C 249.970 26.281,251.097 26.562,251.705 26.679 C 252.313 26.796,252.908 27.051,253.029 27.246 C 253.149 27.441,253.676 27.600,254.200 27.600 C 254.724 27.600,255.264 27.780,255.400 28.000 C 255.536 28.220,255.999 28.400,256.429 28.400 C 256.859 28.400,257.523 28.571,257.905 28.781 C 258.287 28.991,259.770 29.555,261.200 30.035 C 268.239 32.397,281.017 38.366,288.000 42.555 C 288.990 43.149,290.115 43.738,290.500 43.864 C 290.885 43.990,291.200 44.252,291.200 44.447 C 291.200 44.641,291.386 44.800,291.614 44.800 C 292.393 44.800,307.278 54.983,309.437 56.993 C 309.677 57.217,310.470 57.850,311.199 58.400 C 317.265 62.975,328.048 73.508,334.543 81.203 C 339.215 86.737,339.106 86.603,341.322 89.600 C 342.380 91.030,343.538 92.557,343.897 92.992 C 344.823 94.116,352.000 105.132,352.000 105.430 C 352.000 105.566,352.336 106.154,352.747 106.738 C 354.040 108.576,359.746 119.538,361.316 123.200 C 361.646 123.970,362.279 125.410,362.722 126.400 C 365.357 132.279,369.407 144.152,371.181 151.200 C 371.375 151.970,371.717 153.320,371.942 154.200 C 378.109 178.401,378.569 207.000,373.200 232.500 C 372.095 237.750,372.162 237.479,370.020 245.400 C 368.876 249.635,365.484 259.320,363.964 262.696 C 363.544 263.628,363.200 264.485,363.200 264.600 C 363.200 265.141,356.459 279.091,354.892 281.793 C 351.737 287.233,348.161 293.081,347.306 294.200 C 347.138 294.420,346.020 296.040,344.823 297.800 C 343.625 299.560,342.537 301.090,342.404 301.200 C 342.270 301.310,341.729 302.030,341.200 302.800 C 340.671 303.570,340.135 304.290,340.009 304.400 C 339.883 304.510,339.159 305.410,338.400 306.400 C 337.641 307.390,336.920 308.290,336.797 308.400 C 336.674 308.510,335.524 309.860,334.242 311.400 C 330.425 315.984,319.894 326.517,315.037 330.609 C 310.325 334.579,305.792 338.115,303.000 339.998 C 301.900 340.740,300.910 341.461,300.800 341.600 C 300.400 342.106,296.845 344.400,296.461 344.400 C 296.244 344.400,296.007 344.543,295.933 344.717 C 295.514 345.715,274.338 357.125,269.800 358.798 C 269.360 358.960,268.505 359.297,267.900 359.546 C 266.500 360.124,265.046 360.705,263.900 361.146 C 263.405 361.337,262.550 361.691,262.000 361.932 C 258.770 363.350,244.522 367.606,240.000 368.503 C 239.450 368.612,237.560 368.993,235.800 369.349 C 222.409 372.062,213.208 373.000,200.000 373.000 C 186.792 373.000,177.591 372.062,164.200 369.349 C 162.440 368.993,160.550 368.612,160.000 368.503 C 155.478 367.606,141.230 363.350,138.000 361.932 C 136.966 361.478,135.659 360.947,134.100 360.346 C 133.605 360.156,132.750 359.820,132.200 359.600 C 131.650 359.380,130.795 359.043,130.300 358.851 C 125.191 356.873,104.488 345.718,104.067 344.717 C 103.993 344.543,103.756 344.400,103.539 344.400 C 103.155 344.400,99.600 342.106,99.200 341.600 C 99.090 341.461,98.100 340.740,97.000 339.998 C 94.208 338.115,89.675 334.579,84.963 330.609 C 80.106 326.517,69.575 315.984,65.758 311.400 C 64.476 309.860,63.326 308.510,63.203 308.400 C 63.080 308.290,62.359 307.390,61.600 306.400 C 60.841 305.410,60.117 304.510,59.991 304.400 C 59.865 304.290,59.329 303.570,58.800 302.800 C 58.271 302.030,57.730 301.310,57.596 301.200 C 57.463 301.090,56.375 299.560,55.177 297.800 C 53.980 296.040,52.862 294.420,52.694 294.200 C 51.839 293.081,48.263 287.233,45.108 281.793 C 43.541 279.091,36.800 265.141,36.800 264.600 C 36.800 264.485,36.456 263.628,36.036 262.696 C 34.516 259.320,31.124 249.635,29.980 245.400 C 27.838 237.479,27.905 237.750,26.800 232.500 C 22.845 213.714,22.019 193.996,24.368 174.400 C 25.490 165.037,27.257 156.434,30.037 146.800 C 31.925 140.254,35.185 131.069,37.278 126.400 C 37.721 125.410,38.354 123.970,38.684 123.200 C 40.254 119.538,45.960 108.576,47.253 106.738 C 47.664 106.154,48.000 105.566,48.000 105.430 C 48.000 105.132,55.177 94.116,56.103 92.992 C 56.462 92.557,57.620 91.030,58.678 89.600 C 60.894 86.603,60.785 86.737,65.457 81.203 C 71.952 73.508,82.735 62.975,88.801 58.400 C 89.530 57.850,90.323 57.217,90.563 56.993 C 92.722 54.983,107.607 44.800,108.386 44.800 C 108.614 44.800,108.800 44.641,108.800 44.447 C 108.800 44.252,109.115 43.990,109.500 43.864 C 109.885 43.738,111.010 43.149,112.000 42.555 C 119.388 38.123,133.519 31.590,140.000 29.611 C 140.990 29.308,141.971 28.912,142.180 28.730 C 142.389 28.549,142.963 28.400,143.456 28.400 C 143.949 28.400,144.464 28.220,144.600 28.000 C 144.736 27.780,145.199 27.600,145.629 27.600 C 146.059 27.600,146.723 27.438,147.105 27.239 C 147.487 27.040,148.610 26.662,149.600 26.397 C 150.590 26.133,151.813 25.755,152.319 25.558 C 152.824 25.361,153.669 25.200,154.195 25.200 C 154.722 25.200,155.252 25.040,155.373 24.844 C 155.494 24.649,156.179 24.388,156.896 24.266 C 157.613 24.144,159.055 23.854,160.100 23.622 C 171.146 21.168,177.728 20.260,190.400 19.444 L 198.600 18.917 193.000 18.911 C 189.920 18.907,185.960 19.055,184.200 19.239 " stroke="none" fill="#04449d" fill-rule="evenodd"></path><path id="path4" d="M172.800 80.069 C 169.006 81.120,168.023 81.466,165.821 82.526 C 158.058 86.261,152.280 93.290,150.011 101.760 C 148.745 106.483,148.731 274.713,149.996 277.193 C 152.412 281.928,148.150 281.648,215.800 281.515 L 274.600 281.400 277.206 280.513 C 284.587 278.001,290.805 271.881,292.765 265.200 C 293.056 264.210,293.452 262.878,293.647 262.240 C 293.842 261.600,294.000 241.866,294.000 218.192 L 294.000 175.304 295.900 174.814 C 306.951 171.962,314.920 163.307,315.430 153.600 L 315.567 151.000 315.043 154.000 C 314.435 157.475,314.348 157.738,312.679 161.197 C 309.687 167.397,301.381 174.000,296.573 174.000 C 296.066 174.000,295.190 174.176,294.626 174.390 L 293.600 174.780 293.600 217.213 C 293.600 245.517,293.460 260.271,293.178 261.523 C 290.692 272.585,283.745 279.154,272.800 280.793 C 270.658 281.114,253.447 281.208,212.600 281.121 C 147.925 280.984,153.825 281.299,151.021 277.835 L 149.800 276.326 149.800 190.063 L 149.800 103.800 150.732 101.000 C 158.801 76.751,190.157 72.437,203.728 93.708 C 204.537 94.977,205.200 96.104,205.200 96.212 C 205.200 96.320,205.536 97.172,205.948 98.104 C 206.716 99.847,207.241 101.598,207.978 104.877 C 208.210 105.910,208.400 110.545,208.400 115.177 L 208.400 123.600 250.500 123.600 C 284.964 123.600,293.072 123.701,295.200 124.157 C 304.715 126.195,310.743 131.408,314.216 140.600 C 314.382 141.040,314.754 142.750,315.043 144.400 L 315.567 147.400 315.430 144.800 C 315.005 136.723,308.217 127.980,300.000 124.926 C 295.317 123.186,295.717 123.200,251.394 123.200 L 208.800 123.200 208.800 114.346 C 208.800 109.384,208.613 104.769,208.374 103.846 C 207.384 100.018,207.205 99.488,205.856 96.400 C 200.812 84.849,184.551 76.816,172.800 80.069 M86.713 124.102 C 84.737 125.733,84.800 123.196,84.800 201.639 C 84.800 283.099,84.648 278.080,87.149 279.373 C 88.682 280.167,132.199 280.334,133.726 279.553 C 136.176 278.300,135.981 285.014,135.991 201.531 L 136.000 125.662 134.769 124.431 L 133.538 123.200 110.669 123.202 L 87.800 123.204 86.713 124.102 M134.358 124.760 L 135.600 125.921 135.600 201.387 C 135.600 252.381,135.466 277.102,135.188 277.622 C 134.138 279.585,133.954 279.600,110.600 279.600 C 86.641 279.600,87.062 279.641,85.807 277.213 C 85.034 275.718,84.868 127.810,85.638 126.274 C 85.878 125.793,86.553 124.996,87.138 124.502 L 88.200 123.604 110.658 123.602 L 133.115 123.600 134.358 124.760 M315.709 149.200 C 315.709 150.190,315.787 150.595,315.882 150.100 C 315.978 149.605,315.978 148.795,315.882 148.300 C 315.787 147.805,315.709 148.210,315.709 149.200 " stroke="none" fill="#84bcfc" fill-rule="evenodd"></path></g></svg>