<svg id="svg" version="1.1" xmlns="http://www.w3.org/2000/svg" xmlns:xlink="http://www.w3.org/1999/xlink" width="400" height="400" viewBox="0, 0, 400,400"><g id="svgg"><path id="path0" d="M183.200 7.200 C 183.200 7.435,181.808 7.600,179.824 7.600 C 177.967 7.600,176.336 7.780,176.200 8.000 C 176.064 8.220,175.018 8.406,173.876 8.413 C 171.795 8.426,168.511 8.846,164.400 9.624 C 163.190 9.853,161.525 10.140,160.700 10.262 C 159.875 10.384,159.200 10.645,159.200 10.842 C 159.200 11.039,158.480 11.200,157.600 11.200 C 156.720 11.200,156.000 11.380,156.000 11.600 C 156.000 11.820,155.280 12.000,154.400 12.000 C 153.520 12.000,152.800 12.180,152.800 12.400 C 152.800 12.620,152.080 12.800,151.200 12.800 C 150.320 12.800,149.600 12.980,149.600 13.200 C 149.600 13.420,148.880 13.600,148.000 13.600 C 147.120 13.600,146.400 13.780,146.400 14.000 C 146.400 14.220,145.770 14.400,145.000 14.400 C 144.230 14.400,143.600 14.580,143.600 14.800 C 143.600 15.020,143.060 15.200,142.400 15.200 C 141.740 15.200,141.200 15.380,141.200 15.600 C 141.200 15.820,140.660 16.000,140.000 16.000 C 139.340 16.000,138.800 16.180,138.800 16.400 C 138.800 16.620,138.260 16.800,137.600 16.800 C 136.940 16.800,136.400 16.980,136.400 17.200 C 136.400 17.420,135.860 17.600,135.200 17.600 C 134.540 17.600,134.000 17.780,134.000 18.000 C 134.000 18.220,133.561 18.400,133.024 18.400 C 132.487 18.400,131.936 18.580,131.800 18.800 C 131.664 19.020,131.203 19.200,130.776 19.200 C 130.349 19.200,130.000 19.380,130.000 19.600 C 130.000 19.820,129.460 20.000,128.800 20.000 C 128.140 20.000,127.600 20.180,127.600 20.400 C 127.600 20.620,127.240 20.800,126.800 20.800 C 126.360 20.800,126.000 20.980,126.000 21.200 C 126.000 21.420,125.550 21.600,125.000 21.600 C 124.450 21.600,124.000 21.780,124.000 22.000 C 124.000 22.220,123.640 22.400,123.200 22.400 C 122.760 22.400,122.400 22.580,122.400 22.800 C 122.400 23.020,122.040 23.200,121.600 23.200 C 121.160 23.200,120.800 23.380,120.800 23.600 C 120.800 23.820,120.440 24.000,120.000 24.000 C 119.560 24.000,119.200 24.180,119.200 24.400 C 119.200 24.620,118.885 24.801,118.500 24.802 C 118.115 24.804,117.284 25.074,116.654 25.402 C 116.024 25.731,115.259 26.000,114.954 26.000 C 114.649 26.000,114.400 26.180,114.400 26.400 C 114.400 26.620,114.040 26.800,113.600 26.800 C 113.160 26.800,112.800 26.980,112.800 27.200 C 112.800 27.420,112.440 27.600,112.000 27.600 C 111.560 27.600,111.200 27.746,111.200 27.925 C 111.200 28.104,110.570 28.498,109.800 28.800 C 109.030 29.102,108.400 29.496,108.400 29.675 C 108.400 29.854,108.080 30.000,107.688 30.000 C 107.297 30.000,106.717 30.360,106.400 30.800 C 106.083 31.240,105.503 31.600,105.112 31.600 C 104.720 31.600,104.400 31.780,104.400 32.000 C 104.400 32.220,104.080 32.400,103.688 32.400 C 103.297 32.400,102.717 32.760,102.400 33.200 C 102.083 33.640,101.503 34.000,101.112 34.000 C 100.720 34.000,100.400 34.180,100.400 34.400 C 100.400 34.620,100.080 34.800,99.688 34.800 C 99.297 34.800,98.717 35.160,98.400 35.600 C 98.083 36.040,97.543 36.400,97.200 36.400 C 96.857 36.400,96.317 36.760,96.000 37.200 C 95.683 37.640,95.143 38.000,94.800 38.000 C 94.457 38.000,93.917 38.360,93.600 38.800 C 93.283 39.240,92.833 39.600,92.600 39.600 C 92.367 39.600,91.917 39.960,91.600 40.400 C 91.283 40.840,90.780 41.200,90.483 41.200 C 90.186 41.200,89.692 41.425,89.385 41.700 C 88.091 42.861,87.614 43.200,87.276 43.200 C 87.080 43.200,86.354 43.740,85.663 44.400 C 84.972 45.060,84.208 45.600,83.964 45.600 C 83.720 45.600,83.017 46.140,82.400 46.800 C 81.783 47.460,81.099 48.000,80.880 48.000 C 80.661 48.000,79.562 48.900,78.439 50.000 C 77.315 51.100,76.304 52.000,76.193 52.000 C 75.462 52.000,56.000 71.676,56.000 72.415 C 56.000 72.655,55.100 73.729,54.000 74.800 C 52.900 75.871,52.000 76.868,52.000 77.014 C 52.000 77.160,51.460 77.783,50.800 78.400 C 50.140 79.017,49.600 79.737,49.600 80.000 C 49.600 80.263,49.060 80.983,48.400 81.600 C 47.740 82.217,47.200 82.920,47.200 83.164 C 47.200 83.408,46.660 84.172,46.000 84.863 C 45.340 85.554,44.800 86.322,44.800 86.571 C 44.800 86.820,44.440 87.283,44.000 87.600 C 43.560 87.917,43.200 88.497,43.200 88.888 C 43.200 89.280,43.038 89.600,42.839 89.600 C 42.641 89.600,42.289 90.142,42.058 90.805 C 41.827 91.468,41.359 92.117,41.019 92.248 C 40.679 92.379,40.400 92.787,40.400 93.154 C 40.400 93.522,40.040 94.083,39.600 94.400 C 39.160 94.717,38.800 95.297,38.800 95.688 C 38.800 96.080,38.620 96.400,38.400 96.400 C 38.180 96.400,38.000 96.720,38.000 97.112 C 38.000 97.503,37.640 98.083,37.200 98.400 C 36.760 98.717,36.400 99.297,36.400 99.688 C 36.400 100.080,36.220 100.400,36.000 100.400 C 35.780 100.400,35.600 100.720,35.600 101.112 C 35.600 101.503,35.240 102.083,34.800 102.400 C 34.360 102.717,34.000 103.297,34.000 103.688 C 34.000 104.080,33.820 104.400,33.600 104.400 C 33.380 104.400,33.200 104.760,33.200 105.200 C 33.200 105.640,33.020 106.000,32.800 106.000 C 32.580 106.000,32.400 106.360,32.400 106.800 C 32.400 107.240,32.254 107.600,32.075 107.600 C 31.896 107.600,31.502 108.230,31.200 109.000 C 30.898 109.770,30.504 110.400,30.325 110.400 C 30.146 110.400,30.000 110.760,30.000 111.200 C 30.000 111.640,29.820 112.000,29.600 112.000 C 29.380 112.000,29.200 112.360,29.200 112.800 C 29.200 113.240,29.020 113.600,28.800 113.600 C 28.580 113.600,28.400 113.960,28.400 114.400 C 28.400 114.840,28.220 115.200,28.000 115.200 C 27.780 115.200,27.600 115.560,27.600 116.000 C 27.600 116.440,27.420 116.800,27.200 116.800 C 26.980 116.800,26.800 117.149,26.800 117.576 C 26.800 118.003,26.643 118.450,26.452 118.568 C 26.261 118.686,25.768 119.957,25.357 121.391 C 24.946 122.826,24.473 124.000,24.305 124.000 C 24.137 124.000,24.000 124.450,24.000 125.000 C 24.000 125.550,23.820 126.000,23.600 126.000 C 23.380 126.000,23.200 126.450,23.200 127.000 C 23.200 127.550,23.020 128.000,22.800 128.000 C 22.580 128.000,22.400 128.450,22.400 129.000 C 22.400 129.550,22.220 130.000,22.000 130.000 C 21.780 130.000,21.600 130.540,21.600 131.200 C 21.600 131.860,21.420 132.400,21.200 132.400 C 20.980 132.400,20.800 132.940,20.800 133.600 C 20.800 134.260,20.620 134.800,20.400 134.800 C 20.180 134.800,20.000 135.340,20.000 136.000 C 20.000 136.660,19.820 137.200,19.600 137.200 C 19.380 137.200,19.200 137.740,19.200 138.400 C 19.200 139.060,19.020 139.600,18.800 139.600 C 18.580 139.600,18.400 140.219,18.400 140.976 C 18.400 141.733,18.220 142.464,18.000 142.600 C 17.780 142.736,17.600 143.467,17.600 144.224 C 17.600 144.981,17.420 145.600,17.200 145.600 C 16.980 145.600,16.800 146.320,16.800 147.200 C 16.800 148.080,16.620 148.800,16.400 148.800 C 16.180 148.800,16.000 149.520,16.000 150.400 C 16.000 151.280,15.820 152.000,15.600 152.000 C 15.380 152.000,15.200 152.720,15.200 153.600 C 15.200 154.480,15.020 155.200,14.800 155.200 C 14.580 155.200,14.400 155.920,14.400 156.800 C 14.400 157.680,14.220 158.400,14.000 158.400 C 13.780 158.400,13.600 159.300,13.600 160.400 C 13.600 161.500,13.420 162.400,13.200 162.400 C 12.980 162.400,12.800 163.379,12.800 164.576 C 12.800 165.773,12.620 166.864,12.400 167.000 C 12.180 167.136,12.000 168.407,12.000 169.824 C 12.000 171.275,11.825 172.400,11.600 172.400 C 11.365 172.400,11.200 173.792,11.200 175.776 C 11.200 177.633,11.020 179.264,10.800 179.400 C 10.250 179.740,10.250 220.260,10.800 220.600 C 11.020 220.736,11.200 222.367,11.200 224.224 C 11.200 226.208,11.365 227.600,11.600 227.600 C 11.825 227.600,12.000 228.725,12.000 230.176 C 12.000 231.593,12.180 232.864,12.400 233.000 C 12.620 233.136,12.800 234.216,12.800 235.400 C 12.800 236.584,12.980 237.664,13.200 237.800 C 13.420 237.936,13.600 238.847,13.600 239.824 C 13.600 240.801,13.780 241.600,14.000 241.600 C 14.220 241.600,14.400 242.320,14.400 243.200 C 14.400 244.080,14.580 244.800,14.800 244.800 C 15.020 244.800,15.200 245.520,15.200 246.400 C 15.200 247.280,15.380 248.000,15.600 248.000 C 15.820 248.000,16.000 248.720,16.000 249.600 C 16.000 250.480,16.180 251.200,16.400 251.200 C 16.620 251.200,16.800 251.920,16.800 252.800 C 16.800 253.680,16.980 254.400,17.200 254.400 C 17.420 254.400,17.600 255.019,17.600 255.776 C 17.600 256.533,17.780 257.264,18.000 257.400 C 18.220 257.536,18.400 258.267,18.400 259.024 C 18.400 259.781,18.580 260.400,18.800 260.400 C 19.020 260.400,19.200 260.940,19.200 261.600 C 19.200 262.260,19.380 262.800,19.600 262.800 C 19.820 262.800,20.000 263.340,20.000 264.000 C 20.000 264.660,20.180 265.200,20.400 265.200 C 20.620 265.200,20.800 265.740,20.800 266.400 C 20.800 267.060,20.980 267.600,21.200 267.600 C 21.420 267.600,21.600 268.140,21.600 268.800 C 21.600 269.460,21.780 270.000,22.000 270.000 C 22.220 270.000,22.400 270.450,22.400 271.000 C 22.400 271.550,22.580 272.000,22.800 272.000 C 23.020 272.000,23.200 272.450,23.200 273.000 C 23.200 273.550,23.380 274.000,23.600 274.000 C 23.820 274.000,24.000 274.450,24.000 275.000 C 24.000 275.550,24.137 276.000,24.305 276.000 C 24.473 276.000,24.946 277.174,25.357 278.609 C 25.768 280.043,26.261 281.314,26.452 281.432 C 26.643 281.550,26.800 281.997,26.800 282.424 C 26.800 282.851,26.980 283.200,27.200 283.200 C 27.420 283.200,27.600 283.560,27.600 284.000 C 27.600 284.440,27.780 284.800,28.000 284.800 C 28.220 284.800,28.400 285.160,28.400 285.600 C 28.400 286.040,28.580 286.400,28.800 286.400 C 29.020 286.400,29.200 286.760,29.200 287.200 C 29.200 287.640,29.380 288.000,29.600 288.000 C 29.820 288.000,30.000 288.360,30.000 288.800 C 30.000 289.240,30.146 289.600,30.325 289.600 C 30.504 289.600,30.898 290.230,31.200 291.000 C 31.502 291.770,31.896 292.400,32.075 292.400 C 32.254 292.400,32.400 292.760,32.400 293.200 C 32.400 293.640,32.580 294.000,32.800 294.000 C 33.020 294.000,33.200 294.360,33.200 294.800 C 33.200 295.240,33.380 295.600,33.600 295.600 C 33.820 295.600,34.000 295.920,34.000 296.312 C 34.000 296.703,34.360 297.283,34.800 297.600 C 35.240 297.917,35.600 298.497,35.600 298.888 C 35.600 299.280,35.780 299.600,36.000 299.600 C 36.220 299.600,36.400 299.920,36.400 300.312 C 36.400 300.703,36.760 301.283,37.200 301.600 C 37.640 301.917,38.000 302.497,38.000 302.888 C 38.000 303.280,38.180 303.600,38.400 303.600 C 38.620 303.600,38.800 303.920,38.800 304.312 C 38.800 304.703,39.160 305.283,39.600 305.600 C 40.040 305.917,40.400 306.478,40.400 306.846 C 40.400 307.213,40.679 307.621,41.019 307.752 C 41.359 307.883,41.827 308.532,42.058 309.195 C 42.289 309.858,42.641 310.400,42.839 310.400 C 43.038 310.400,43.200 310.720,43.200 311.112 C 43.200 311.503,43.560 312.083,44.000 312.400 C 44.440 312.717,44.800 313.180,44.800 313.429 C 44.800 313.678,45.340 314.446,46.000 315.137 C 46.660 315.828,47.200 316.592,47.200 316.836 C 47.200 317.080,47.740 317.783,48.400 318.400 C 49.060 319.017,49.600 319.737,49.600 320.000 C 49.600 320.263,50.140 320.983,50.800 321.600 C 51.460 322.217,52.000 322.840,52.000 322.986 C 52.000 323.132,52.900 324.129,54.000 325.200 C 55.100 326.271,56.000 327.345,56.000 327.585 C 56.000 328.324,75.462 348.000,76.193 348.000 C 76.304 348.000,77.315 348.900,78.439 350.000 C 79.562 351.100,80.661 352.000,80.880 352.000 C 81.099 352.000,81.783 352.540,82.400 353.200 C 83.017 353.860,83.720 354.400,83.964 354.400 C 84.208 354.400,84.972 354.940,85.663 355.600 C 86.354 356.260,87.085 356.800,87.288 356.800 C 87.491 356.800,87.908 357.025,88.215 357.300 C 89.579 358.523,89.999 358.800,90.495 358.800 C 90.786 358.800,91.283 359.160,91.600 359.600 C 91.917 360.040,92.367 360.400,92.600 360.400 C 92.833 360.400,93.283 360.760,93.600 361.200 C 93.917 361.640,94.457 362.000,94.800 362.000 C 95.143 362.000,95.683 362.360,96.000 362.800 C 96.317 363.240,96.857 363.600,97.200 363.600 C 97.543 363.600,98.083 363.960,98.400 364.400 C 98.717 364.840,99.297 365.200,99.688 365.200 C 100.080 365.200,100.400 365.380,100.400 365.600 C 100.400 365.820,100.720 366.000,101.112 366.000 C 101.503 366.000,102.083 366.360,102.400 366.800 C 102.717 367.240,103.297 367.600,103.688 367.600 C 104.080 367.600,104.400 367.780,104.400 368.000 C 104.400 368.220,104.720 368.400,105.112 368.400 C 105.503 368.400,106.083 368.760,106.400 369.200 C 106.717 369.640,107.297 370.000,107.688 370.000 C 108.080 370.000,108.400 370.146,108.400 370.325 C 108.400 370.504,109.030 370.898,109.800 371.200 C 110.570 371.502,111.200 371.896,111.200 372.075 C 111.200 372.254,111.560 372.400,112.000 372.400 C 112.440 372.400,112.800 372.580,112.800 372.800 C 112.800 373.020,113.160 373.200,113.600 373.200 C 114.040 373.200,114.400 373.380,114.400 373.600 C 114.400 373.820,114.649 374.000,114.954 374.000 C 115.259 374.000,116.024 374.269,116.654 374.598 C 117.284 374.926,118.115 375.196,118.500 375.198 C 118.885 375.199,119.200 375.380,119.200 375.600 C 119.200 375.820,119.560 376.000,120.000 376.000 C 120.440 376.000,120.800 376.180,120.800 376.400 C 120.800 376.620,121.160 376.800,121.600 376.800 C 122.040 376.800,122.400 376.980,122.400 377.200 C 122.400 377.420,122.760 377.600,123.200 377.600 C 123.640 377.600,124.000 377.780,124.000 378.000 C 124.000 378.220,124.450 378.400,125.000 378.400 C 125.550 378.400,126.000 378.580,126.000 378.800 C 126.000 379.020,126.360 379.200,126.800 379.200 C 127.240 379.200,127.600 379.380,127.600 379.600 C 127.600 379.820,128.140 380.000,128.800 380.000 C 129.460 380.000,130.000 380.180,130.000 380.400 C 130.000 380.620,130.349 380.800,130.776 380.800 C 131.203 380.800,131.664 380.980,131.800 381.200 C 131.936 381.420,132.487 381.600,133.024 381.600 C 133.561 381.600,134.000 381.780,134.000 382.000 C 134.000 382.220,134.540 382.400,135.200 382.400 C 135.860 382.400,136.400 382.580,136.400 382.800 C 136.400 383.020,136.940 383.200,137.600 383.200 C 138.260 383.200,138.800 383.380,138.800 383.600 C 138.800 383.820,139.340 384.000,140.000 384.000 C 140.660 384.000,141.200 384.180,141.200 384.400 C 141.200 384.620,141.740 384.800,142.400 384.800 C 143.060 384.800,143.600 384.980,143.600 385.200 C 143.600 385.420,144.230 385.600,145.000 385.600 C 145.770 385.600,146.400 385.780,146.400 386.000 C 146.400 386.220,147.120 386.400,148.000 386.400 C 148.880 386.400,149.600 386.580,149.600 386.800 C 149.600 387.020,150.320 387.200,151.200 387.200 C 152.080 387.200,152.800 387.380,152.800 387.600 C 152.800 387.820,153.520 388.000,154.400 388.000 C 155.280 388.000,156.000 388.180,156.000 388.400 C 156.000 388.620,156.720 388.800,157.600 388.800 C 158.480 388.800,159.200 388.961,159.200 389.158 C 159.200 389.355,159.875 389.616,160.700 389.738 C 161.525 389.860,163.190 390.147,164.400 390.376 C 168.511 391.154,171.795 391.574,173.876 391.587 C 175.018 391.594,176.064 391.780,176.200 392.000 C 176.336 392.220,177.967 392.400,179.824 392.400 C 181.808 392.400,183.200 392.565,183.200 392.800 C 183.200 393.060,189.067 393.200,200.000 393.200 C 210.933 393.200,216.800 393.060,216.800 392.800 C 216.800 392.565,218.192 392.400,220.176 392.400 C 222.033 392.400,223.664 392.220,223.800 392.000 C 223.936 391.780,224.982 391.594,226.124 391.587 C 228.205 391.574,231.489 391.154,235.600 390.376 C 236.810 390.147,238.475 389.860,239.300 389.738 C 240.125 389.616,240.800 389.355,240.800 389.158 C 240.800 388.961,241.520 388.800,242.400 388.800 C 243.280 388.800,244.000 388.620,244.000 388.400 C 244.000 388.180,244.720 388.000,245.600 388.000 C 246.480 388.000,247.200 387.820,247.200 387.600 C 247.200 387.380,247.920 387.200,248.800 387.200 C 249.680 387.200,250.400 387.020,250.400 386.800 C 250.400 386.580,251.120 386.400,252.000 386.400 C 252.880 386.400,253.600 386.220,253.600 386.000 C 253.600 385.780,254.230 385.600,255.000 385.600 C 255.770 385.600,256.400 385.420,256.400 385.200 C 256.400 384.980,256.940 384.800,257.600 384.800 C 258.260 384.800,258.800 384.620,258.800 384.400 C 258.800 384.180,259.340 384.000,260.000 384.000 C 260.660 384.000,261.200 383.820,261.200 383.600 C 261.200 383.380,261.740 383.200,262.400 383.200 C 263.060 383.200,263.600 383.020,263.600 382.800 C 263.600 382.580,264.140 382.400,264.800 382.400 C 265.460 382.400,266.000 382.220,266.000 382.000 C 266.000 381.780,266.439 381.600,266.976 381.600 C 267.513 381.600,268.064 381.420,268.200 381.200 C 268.336 380.980,268.797 380.800,269.224 380.800 C 269.651 380.800,270.000 380.620,270.000 380.400 C 270.000 380.180,270.540 380.000,271.200 380.000 C 271.860 380.000,272.400 379.820,272.400 379.600 C 272.400 379.380,272.760 379.200,273.200 379.200 C 273.640 379.200,274.000 379.020,274.000 378.800 C 274.000 378.580,274.450 378.400,275.000 378.400 C 275.550 378.400,276.000 378.220,276.000 378.000 C 276.000 377.780,276.360 377.600,276.800 377.600 C 277.240 377.600,277.600 377.420,277.600 377.200 C 277.600 376.980,277.960 376.800,278.400 376.800 C 278.840 376.800,279.200 376.620,279.200 376.400 C 279.200 376.180,279.560 376.000,280.000 376.000 C 280.440 376.000,280.800 375.820,280.800 375.600 C 280.800 375.380,281.115 375.199,281.500 375.198 C 281.885 375.196,282.716 374.926,283.346 374.598 C 283.976 374.269,284.741 374.000,285.046 374.000 C 285.351 374.000,285.600 373.820,285.600 373.600 C 285.600 373.380,285.960 373.200,286.400 373.200 C 286.840 373.200,287.200 373.020,287.200 372.800 C 287.200 372.580,287.560 372.400,288.000 372.400 C 288.440 372.400,288.800 372.254,288.800 372.075 C 288.800 371.896,289.430 371.502,290.200 371.200 C 290.970 370.898,291.600 370.504,291.600 370.325 C 291.600 370.146,291.920 370.000,292.312 370.000 C 292.703 370.000,293.283 369.640,293.600 369.200 C 293.917 368.760,294.497 368.400,294.888 368.400 C 295.280 368.400,295.600 368.220,295.600 368.000 C 295.600 367.780,295.920 367.600,296.312 367.600 C 296.703 367.600,297.283 367.240,297.600 366.800 C 297.917 366.360,298.497 366.000,298.888 366.000 C 299.280 366.000,299.600 365.820,299.600 365.600 C 299.600 365.380,299.920 365.200,300.312 365.200 C 300.703 365.200,301.283 364.840,301.600 364.400 C 301.917 363.960,302.457 363.600,302.800 363.600 C 303.143 363.600,303.683 363.240,304.000 362.800 C 304.317 362.360,304.857 362.000,305.200 362.000 C 305.543 362.000,306.083 361.640,306.400 361.200 C 306.717 360.760,307.167 360.400,307.400 360.400 C 307.633 360.400,308.083 360.040,308.400 359.600 C 308.717 359.160,309.220 358.800,309.517 358.800 C 309.814 358.800,310.308 358.575,310.615 358.300 C 311.909 357.139,312.386 356.800,312.724 356.800 C 312.920 356.800,313.646 356.260,314.337 355.600 C 315.028 354.940,315.792 354.400,316.036 354.400 C 316.280 354.400,316.983 353.860,317.600 353.200 C 318.217 352.540,318.901 352.000,319.120 352.000 C 319.339 352.000,320.438 351.100,321.561 350.000 C 322.685 348.900,323.696 348.000,323.807 348.000 C 324.538 348.000,344.000 328.324,344.000 327.585 C 344.000 327.345,344.900 326.271,346.000 325.200 C 347.100 324.129,348.000 323.132,348.000 322.986 C 348.000 322.840,348.540 322.217,349.200 321.600 C 349.860 320.983,350.400 320.263,350.400 320.000 C 350.400 319.737,350.940 319.017,351.600 318.400 C 352.260 317.783,352.800 317.080,352.800 316.836 C 352.800 316.592,353.340 315.828,354.000 315.137 C 354.660 314.446,355.200 313.678,355.200 313.429 C 355.200 313.180,355.560 312.717,356.000 312.400 C 356.440 312.083,356.800 311.503,356.800 311.112 C 356.800 310.720,356.962 310.400,357.161 310.400 C 357.359 310.400,357.711 309.858,357.942 309.195 C 358.173 308.532,358.641 307.883,358.981 307.752 C 359.321 307.621,359.600 307.213,359.600 306.846 C 359.600 306.478,359.960 305.917,360.400 305.600 C 360.840 305.283,361.200 304.703,361.200 304.312 C 361.200 303.920,361.380 303.600,361.600 303.600 C 361.820 303.600,362.000 303.280,362.000 302.888 C 362.000 302.497,362.360 301.917,362.800 301.600 C 363.240 301.283,363.600 300.703,363.600 300.312 C 363.600 299.920,363.780 299.600,364.000 299.600 C 364.220 299.600,364.400 299.280,364.400 298.888 C 364.400 298.497,364.760 297.917,365.200 297.600 C 365.640 297.283,366.000 296.703,366.000 296.312 C 366.000 295.920,366.180 295.600,366.400 295.600 C 366.620 295.600,366.800 295.240,366.800 294.800 C 366.800 294.360,366.980 294.000,367.200 294.000 C 367.420 294.000,367.600 293.640,367.600 293.200 C 367.600 292.760,367.746 292.400,367.925 292.400 C 368.104 292.400,368.498 291.770,368.800 291.000 C 369.102 290.230,369.496 289.600,369.675 289.600 C 369.854 289.600,370.000 289.240,370.000 288.800 C 370.000 288.360,370.180 288.000,370.400 288.000 C 370.620 288.000,370.800 287.640,370.800 287.200 C 370.800 286.760,370.980 286.400,371.200 286.400 C 371.420 286.400,371.600 286.040,371.600 285.600 C 371.600 285.160,371.780 284.800,372.000 284.800 C 372.220 284.800,372.400 284.440,372.400 284.000 C 372.400 283.560,372.580 283.200,372.800 283.200 C 373.020 283.200,373.200 282.851,373.200 282.424 C 373.200 281.997,373.357 281.550,373.548 281.432 C 373.739 281.314,374.232 280.043,374.643 278.609 C 375.054 277.174,375.527 276.000,375.695 276.000 C 375.863 276.000,376.000 275.550,376.000 275.000 C 376.000 274.450,376.180 274.000,376.400 274.000 C 376.620 274.000,376.800 273.651,376.800 273.224 C 376.800 272.797,376.980 272.336,377.200 272.200 C 377.420 272.064,377.600 271.513,377.600 270.976 C 377.600 270.439,377.780 270.000,378.000 270.000 C 378.220 270.000,378.400 269.460,378.400 268.800 C 378.400 268.140,378.580 267.600,378.800 267.600 C 379.020 267.600,379.200 267.060,379.200 266.400 C 379.200 265.740,379.380 265.200,379.600 265.200 C 379.820 265.200,380.000 264.660,380.000 264.000 C 380.000 263.340,380.180 262.800,380.400 262.800 C 380.620 262.800,380.800 262.260,380.800 261.600 C 380.800 260.940,380.980 260.400,381.200 260.400 C 381.420 260.400,381.600 259.781,381.600 259.024 C 381.600 258.267,381.780 257.536,382.000 257.400 C 382.220 257.264,382.400 256.533,382.400 255.776 C 382.400 255.019,382.580 254.400,382.800 254.400 C 383.020 254.400,383.200 253.680,383.200 252.800 C 383.200 251.920,383.380 251.200,383.600 251.200 C 383.820 251.200,384.000 250.480,384.000 249.600 C 384.000 248.720,384.180 248.000,384.400 248.000 C 384.620 248.000,384.800 247.280,384.800 246.400 C 384.800 245.520,384.980 244.800,385.200 244.800 C 385.420 244.800,385.600 244.080,385.600 243.200 C 385.600 242.320,385.780 241.600,386.000 241.600 C 386.220 241.600,386.400 240.801,386.400 239.824 C 386.400 238.847,386.580 237.936,386.800 237.800 C 387.020 237.664,387.200 236.584,387.200 235.400 C 387.200 234.216,387.380 233.136,387.600 233.000 C 387.820 232.864,388.000 231.593,388.000 230.176 C 388.000 228.725,388.175 227.600,388.400 227.600 C 388.635 227.600,388.800 226.208,388.800 224.224 C 388.800 222.367,388.980 220.736,389.200 220.600 C 389.458 220.440,389.600 213.137,389.600 200.000 C 389.600 186.863,389.458 179.560,389.200 179.400 C 388.980 179.264,388.800 177.633,388.800 175.776 C 388.800 173.792,388.635 172.400,388.400 172.400 C 388.175 172.400,388.000 171.275,388.000 169.824 C 388.000 168.407,387.820 167.136,387.600 167.000 C 387.380 166.864,387.200 165.784,387.200 164.600 C 387.200 163.416,387.020 162.336,386.800 162.200 C 386.580 162.064,386.400 161.153,386.400 160.176 C 386.400 159.199,386.220 158.400,386.000 158.400 C 385.780 158.400,385.600 157.680,385.600 156.800 C 385.600 155.920,385.420 155.200,385.200 155.200 C 384.980 155.200,384.800 154.480,384.800 153.600 C 384.800 152.720,384.620 152.000,384.400 152.000 C 384.180 152.000,384.000 151.280,384.000 150.400 C 384.000 149.520,383.820 148.800,383.600 148.800 C 383.380 148.800,383.200 148.080,383.200 147.200 C 383.200 146.320,383.020 145.600,382.800 145.600 C 382.580 145.600,382.400 144.981,382.400 144.224 C 382.400 143.467,382.220 142.736,382.000 142.600 C 381.780 142.464,381.600 141.733,381.600 140.976 C 381.600 140.219,381.420 139.600,381.200 139.600 C 380.980 139.600,380.800 139.060,380.800 138.400 C 380.800 137.740,380.620 137.200,380.400 137.200 C 380.180 137.200,380.000 136.660,380.000 136.000 C 380.000 135.340,379.820 134.800,379.600 134.800 C 379.380 134.800,379.200 134.260,379.200 133.600 C 379.200 132.940,379.020 132.400,378.800 132.400 C 378.580 132.400,378.400 131.860,378.400 131.200 C 378.400 130.540,378.220 130.000,378.000 130.000 C 377.780 130.000,377.600 129.561,377.600 129.024 C 377.600 128.487,377.420 127.936,377.200 127.800 C 376.980 127.664,376.800 127.203,376.800 126.776 C 376.800 126.349,376.620 126.000,376.400 126.000 C 376.180 126.000,376.000 125.550,376.000 125.000 C 376.000 124.450,375.863 124.000,375.695 124.000 C 375.527 124.000,375.054 122.826,374.643 121.391 C 374.232 119.957,373.739 118.686,373.548 118.568 C 373.357 118.450,373.200 118.003,373.200 117.576 C 373.200 117.149,373.020 116.800,372.800 116.800 C 372.580 116.800,372.400 116.440,372.400 116.000 C 372.400 115.560,372.220 115.200,372.000 115.200 C 371.780 115.200,371.600 114.840,371.600 114.400 C 371.600 113.960,371.420 113.600,371.200 113.600 C 370.980 113.600,370.800 113.240,370.800 112.800 C 370.800 112.360,370.620 112.000,370.400 112.000 C 370.180 112.000,370.000 111.640,370.000 111.200 C 370.000 110.760,369.854 110.400,369.675 110.400 C 369.496 110.400,369.102 109.770,368.800 109.000 C 368.498 108.230,368.104 107.600,367.925 107.600 C 367.746 107.600,367.600 107.240,367.600 106.800 C 367.600 106.360,367.420 106.000,367.200 106.000 C 366.980 106.000,366.800 105.640,366.800 105.200 C 366.800 104.760,366.620 104.400,366.400 104.400 C 366.180 104.400,366.000 104.080,366.000 103.688 C 366.000 103.297,365.640 102.717,365.200 102.400 C 364.760 102.083,364.400 101.503,364.400 101.112 C 364.400 100.720,364.220 100.400,364.000 100.400 C 363.780 100.400,363.600 100.080,363.600 99.688 C 363.600 99.297,363.240 98.717,362.800 98.400 C 362.360 98.083,362.000 97.503,362.000 97.112 C 362.000 96.720,361.820 96.400,361.600 96.400 C 361.380 96.400,361.200 96.080,361.200 95.688 C 361.200 95.297,360.840 94.717,360.400 94.400 C 359.960 94.083,359.600 93.522,359.600 93.154 C 359.600 92.787,359.321 92.379,358.981 92.248 C 358.641 92.117,358.173 91.468,357.942 90.805 C 357.711 90.142,357.359 89.600,357.161 89.600 C 356.962 89.600,356.800 89.280,356.800 88.888 C 356.800 88.497,356.440 87.917,356.000 87.600 C 355.560 87.283,355.200 86.820,355.200 86.571 C 355.200 86.322,354.660 85.554,354.000 84.863 C 353.340 84.172,352.800 83.408,352.800 83.164 C 352.800 82.920,352.260 82.217,351.600 81.600 C 350.940 80.983,350.400 80.263,350.400 80.000 C 350.400 79.737,349.860 79.017,349.200 78.400 C 348.540 77.783,348.000 77.160,348.000 77.014 C 348.000 76.868,347.100 75.871,346.000 74.800 C 344.900 73.729,344.000 72.655,344.000 72.415 C 344.000 71.676,324.538 52.000,323.807 52.000 C 323.696 52.000,322.685 51.100,321.561 50.000 C 320.438 48.900,319.339 48.000,319.120 48.000 C 318.901 48.000,318.217 47.460,317.600 46.800 C 316.983 46.140,316.280 45.600,316.036 45.600 C 315.792 45.600,315.028 45.060,314.337 44.400 C 313.646 43.740,312.915 43.200,312.712 43.200 C 312.509 43.200,312.092 42.975,311.785 42.700 C 310.421 41.477,310.001 41.200,309.505 41.200 C 309.214 41.200,308.717 40.840,308.400 40.400 C 308.083 39.960,307.633 39.600,307.400 39.600 C 307.167 39.600,306.717 39.240,306.400 38.800 C 306.083 38.360,305.543 38.000,305.200 38.000 C 304.857 38.000,304.317 37.640,304.000 37.200 C 303.683 36.760,303.143 36.400,302.800 36.400 C 302.457 36.400,301.917 36.040,301.600 35.600 C 301.283 35.160,300.703 34.800,300.312 34.800 C 299.920 34.800,299.600 34.620,299.600 34.400 C 299.600 34.180,299.280 34.000,298.888 34.000 C 298.497 34.000,297.917 33.640,297.600 33.200 C 297.283 32.760,296.703 32.400,296.312 32.400 C 295.920 32.400,295.600 32.220,295.600 32.000 C 295.600 31.780,295.280 31.600,294.888 31.600 C 294.497 31.600,293.917 31.240,293.600 30.800 C 293.283 30.360,292.703 30.000,292.312 30.000 C 291.920 30.000,291.600 29.854,291.600 29.675 C 291.600 29.496,290.970 29.102,290.200 28.800 C 289.430 28.498,288.800 28.104,288.800 27.925 C 288.800 27.746,288.440 27.600,288.000 27.600 C 287.560 27.600,287.200 27.420,287.200 27.200 C 287.200 26.980,286.840 26.800,286.400 26.800 C 285.960 26.800,285.600 26.620,285.600 26.400 C 285.600 26.180,285.351 26.000,285.046 26.000 C 284.741 26.000,283.976 25.731,283.346 25.402 C 282.716 25.074,281.885 24.804,281.500 24.802 C 281.115 24.801,280.800 24.620,280.800 24.400 C 280.800 24.180,280.440 24.000,280.000 24.000 C 279.560 24.000,279.200 23.820,279.200 23.600 C 279.200 23.380,278.840 23.200,278.400 23.200 C 277.960 23.200,277.600 23.020,277.600 22.800 C 277.600 22.580,277.240 22.400,276.800 22.400 C 276.360 22.400,276.000 22.220,276.000 22.000 C 276.000 21.780,275.550 21.600,275.000 21.600 C 274.450 21.600,274.000 21.420,274.000 21.200 C 274.000 20.980,273.640 20.800,273.200 20.800 C 272.760 20.800,272.400 20.620,272.400 20.400 C 272.400 20.180,271.860 20.000,271.200 20.000 C 270.540 20.000,270.000 19.820,270.000 19.600 C 270.000 19.380,269.651 19.200,269.224 19.200 C 268.797 19.200,268.336 19.020,268.200 18.800 C 268.064 18.580,267.513 18.400,266.976 18.400 C 266.439 18.400,266.000 18.220,266.000 18.000 C 266.000 17.780,265.460 17.600,264.800 17.600 C 264.140 17.600,263.600 17.420,263.600 17.200 C 263.600 16.980,263.060 16.800,262.400 16.800 C 261.740 16.800,261.200 16.620,261.200 16.400 C 261.200 16.180,260.660 16.000,260.000 16.000 C 259.340 16.000,258.800 15.820,258.800 15.600 C 258.800 15.380,258.260 15.200,257.600 15.200 C 256.940 15.200,256.400 15.020,256.400 14.800 C 256.400 14.580,255.770 14.400,255.000 14.400 C 254.230 14.400,253.600 14.220,253.600 14.000 C 253.600 13.780,252.880 13.600,252.000 13.600 C 251.120 13.600,250.400 13.420,250.400 13.200 C 250.400 12.980,249.680 12.800,248.800 12.800 C 247.920 12.800,247.200 12.620,247.200 12.400 C 247.200 12.180,246.480 12.000,245.600 12.000 C 244.720 12.000,244.000 11.820,244.000 11.600 C 244.000 11.380,243.280 11.200,242.400 11.200 C 241.520 11.200,240.800 11.039,240.800 10.842 C 240.800 10.645,240.125 10.384,239.300 10.262 C 238.475 10.140,236.810 9.853,235.600 9.624 C 231.489 8.846,228.205 8.426,226.124 8.413 C 224.982 8.406,223.936 8.220,223.800 8.000 C 223.664 7.780,222.033 7.600,220.176 7.600 C 218.192 7.600,216.800 7.435,216.800 7.200 C 216.800 6.940,210.933 6.800,200.000 6.800 C 189.067 6.800,183.200 6.940,183.200 7.200 M215.200 19.238 C 226.838 20.206,236.567 21.990,249.800 25.584 C 252.575 26.338,262.845 29.879,265.000 30.826 C 265.440 31.019,267.780 32.011,270.200 33.031 C 274.780 34.960,284.738 39.930,288.200 42.014 C 289.300 42.676,290.470 43.336,290.800 43.480 C 300.365 47.661,325.354 68.957,336.001 82.000 C 336.988 83.210,337.977 84.405,338.198 84.655 C 342.040 89.009,349.792 100.374,354.394 108.400 C 359.746 117.733,365.706 131.082,368.414 139.800 C 368.687 140.680,369.051 141.760,369.222 142.200 C 369.393 142.640,369.650 143.450,369.794 144.000 C 369.937 144.550,370.212 145.540,370.404 146.200 C 371.106 148.603,371.662 150.635,372.045 152.200 C 372.260 153.080,372.618 154.520,372.840 155.400 C 375.689 166.695,377.600 183.190,377.589 196.400 C 377.580 207.914,375.975 222.908,373.607 233.600 C 372.772 237.368,371.882 240.996,371.227 243.300 C 370.992 244.125,370.640 245.385,370.445 246.100 C 367.537 256.743,359.444 275.497,353.571 285.200 C 352.439 287.070,351.153 289.230,350.712 290.000 C 349.801 291.592,343.202 301.295,342.824 301.600 C 342.687 301.710,341.708 302.970,340.647 304.400 C 333.287 314.322,320.808 326.916,309.200 336.135 C 308.870 336.397,307.970 337.050,307.200 337.586 C 306.430 338.123,305.710 338.662,305.600 338.786 C 302.938 341.768,283.316 353.388,273.900 357.558 C 272.855 358.021,271.235 358.744,270.300 359.164 C 261.336 363.192,249.060 367.125,237.600 369.642 C 214.212 374.777,185.788 374.777,162.400 369.642 C 155.473 368.121,150.938 366.884,144.400 364.734 C 139.484 363.118,133.142 360.711,129.600 359.118 C 128.610 358.673,126.990 357.951,126.000 357.513 C 121.673 355.600,118.794 354.116,112.000 350.299 C 106.670 347.305,95.457 339.969,94.400 338.786 C 94.290 338.662,93.570 338.123,92.800 337.586 C 91.064 336.377,91.055 336.370,86.283 332.397 C 76.862 324.553,65.672 312.919,59.353 304.400 C 58.292 302.970,57.313 301.710,57.176 301.600 C 56.798 301.295,50.199 291.592,49.288 290.000 C 48.847 289.230,47.561 287.070,46.429 285.200 C 40.556 275.497,32.463 256.743,29.555 246.100 C 29.360 245.385,29.008 244.125,28.773 243.300 C 27.713 239.570,26.205 233.088,25.587 229.600 C 24.189 221.708,23.795 218.711,23.011 210.000 C 21.582 194.138,22.819 175.469,26.415 158.600 C 26.730 157.124,26.914 156.355,27.973 152.100 C 28.179 151.275,28.529 149.970,28.751 149.200 C 29.430 146.846,29.933 145.048,30.206 144.000 C 30.350 143.450,30.607 142.640,30.778 142.200 C 30.949 141.760,31.306 140.680,31.571 139.800 C 31.836 138.920,32.211 137.840,32.404 137.400 C 32.597 136.960,33.227 135.250,33.803 133.600 C 35.778 127.951,41.426 115.600,44.138 111.000 C 44.787 109.900,45.862 108.010,46.529 106.800 C 49.097 102.136,58.074 88.950,60.591 86.145 C 60.816 85.894,61.270 85.351,61.600 84.938 C 66.842 78.379,74.640 70.123,81.600 63.764 C 87.993 57.923,101.659 47.906,109.400 43.388 C 110.500 42.745,111.940 41.906,112.600 41.522 C 115.827 39.646,125.888 34.679,129.800 33.031 C 132.220 32.011,134.560 31.019,135.000 30.826 C 137.155 29.879,147.425 26.338,150.200 25.584 C 173.156 19.350,193.116 17.401,215.200 19.238 " stroke="none" fill="#050404" fill-rule="evenodd"></path><path id="path1" d="M115.200 108.469 C 111.207 109.575,110.459 109.839,108.800 110.732 C 103.514 113.578,99.385 118.413,97.494 123.971 L 96.600 126.600 96.400 170.390 L 96.200 214.181 95.200 214.470 C 89.729 216.050,87.928 216.776,85.450 218.399 C 68.365 229.585,71.801 257.960,90.983 264.092 C 94.660 265.268,97.038 265.342,138.600 265.567 L 181.400 265.800 181.640 275.800 C 181.855 284.767,181.973 286.068,182.782 288.397 C 189.344 307.308,210.124 314.876,226.800 304.429 C 232.734 300.712,237.211 294.646,239.367 287.400 C 240.630 283.154,240.896 114.936,239.643 112.493 C 238.675 110.604,237.418 109.449,235.451 108.638 C 233.622 107.884,117.900 107.722,115.200 108.469 M255.747 110.309 C 253.943 111.770,254.000 109.246,254.000 187.588 C 254.000 256.435,254.053 262.509,254.659 263.435 C 256.097 265.628,255.782 265.600,279.154 265.600 C 301.304 265.600,302.072 265.548,303.562 263.949 L 304.400 263.049 304.400 187.494 L 304.400 111.938 303.231 110.769 L 302.062 109.600 279.331 109.609 C 258.398 109.617,256.533 109.672,255.747 110.309 " stroke="none" fill="#fcfbfb" fill-rule="evenodd"></path><path id="path2" d="M190.000 19.441 C 179.216 20.131,171.247 21.150,163.900 22.779 C 159.218 23.817,158.508 23.979,157.000 24.360 C 156.120 24.582,154.860 24.876,154.200 25.012 C 153.540 25.149,152.640 25.406,152.200 25.585 C 151.760 25.763,150.590 26.134,149.600 26.410 C 139.666 29.177,123.271 35.971,115.200 40.666 C 113.284 41.780,111.633 42.728,109.459 43.960 C 93.026 53.274,72.146 71.676,60.590 87.031 C 59.381 88.636,58.169 90.194,57.896 90.492 C 57.623 90.790,57.220 91.316,57.000 91.660 C 56.780 92.004,55.146 94.427,53.369 97.043 C 41.675 114.258,33.012 133.555,28.428 152.600 C 27.952 154.580,27.404 156.830,27.211 157.600 C 26.885 158.897,26.656 160.058,25.611 165.700 C 22.745 181.170,22.265 201.561,24.376 218.200 C 25.472 226.834,27.055 234.823,29.371 243.400 C 30.237 246.608,35.105 260.985,36.007 263.000 C 36.401 263.880,37.055 265.409,37.462 266.397 C 38.887 269.866,45.468 282.643,47.971 286.800 C 50.851 291.584,54.006 296.504,54.383 296.800 C 54.524 296.910,55.065 297.630,55.587 298.400 C 64.666 311.805,80.200 327.705,94.389 338.116 C 95.825 339.170,97.340 340.315,97.757 340.661 C 98.173 341.006,100.153 342.348,102.157 343.643 C 104.160 344.938,106.017 346.178,106.283 346.399 C 106.549 346.619,106.856 346.800,106.966 346.800 C 107.076 346.800,108.839 347.802,110.883 349.026 C 116.440 352.353,128.794 358.383,134.600 360.603 C 136.140 361.192,137.760 361.819,138.200 361.996 C 138.640 362.174,139.630 362.536,140.400 362.800 C 141.170 363.064,142.160 363.432,142.600 363.616 C 145.298 364.748,155.715 367.612,162.000 368.950 C 176.087 371.950,185.935 373.000,200.000 373.000 C 214.065 373.000,223.913 371.950,238.000 368.950 C 244.285 367.612,254.702 364.748,257.400 363.616 C 257.840 363.432,258.830 363.064,259.600 362.800 C 260.370 362.536,261.360 362.174,261.800 361.996 C 262.240 361.819,263.860 361.192,265.400 360.603 C 272.218 357.997,283.393 352.493,290.200 348.388 C 291.300 347.724,292.470 347.060,292.800 346.911 C 293.130 346.762,293.580 346.496,293.800 346.319 C 294.020 346.142,295.840 344.938,297.843 343.643 C 299.847 342.348,301.827 341.006,302.243 340.661 C 302.660 340.315,304.175 339.170,305.611 338.116 C 319.800 327.705,335.334 311.805,344.413 298.400 C 344.935 297.630,345.476 296.910,345.617 296.800 C 345.994 296.504,349.149 291.584,352.029 286.800 C 354.532 282.643,361.113 269.866,362.538 266.397 C 362.945 265.409,363.599 263.880,363.993 263.000 C 364.895 260.985,369.763 246.608,370.629 243.400 C 371.928 238.590,373.082 233.553,374.020 228.600 C 377.770 208.796,377.904 184.449,374.365 165.600 C 374.138 164.390,373.769 162.410,373.546 161.200 C 373.323 159.990,372.982 158.370,372.789 157.600 C 372.596 156.830,372.048 154.580,371.572 152.600 C 366.988 133.555,358.325 114.258,346.631 97.043 C 344.854 94.427,343.220 91.997,343.000 91.643 C 342.780 91.289,342.505 90.910,342.389 90.800 C 342.273 90.690,340.991 89.070,339.540 87.200 C 326.624 70.553,307.169 53.384,290.541 43.960 C 288.367 42.728,286.716 41.780,284.800 40.666 C 276.729 35.971,260.334 29.177,250.400 26.410 C 249.410 26.134,248.240 25.763,247.800 25.585 C 247.360 25.406,246.460 25.149,245.800 25.012 C 245.140 24.876,243.925 24.592,243.100 24.382 C 236.373 22.668,228.746 21.253,221.600 20.391 C 218.297 19.992,200.793 18.807,199.200 18.875 C 198.650 18.898,194.510 19.153,190.000 19.441 M237.046 108.900 C 238.111 109.615,239.389 110.920,239.886 111.800 L 240.789 113.400 240.667 199.200 C 240.599 246.390,240.410 285.630,240.245 286.400 C 240.080 287.170,239.778 288.205,239.573 288.700 C 239.368 289.195,239.020 290.050,238.800 290.600 C 235.354 299.215,228.108 305.913,219.600 308.348 C 215.839 309.424,214.617 309.599,210.954 309.586 C 205.898 309.568,200.841 308.356,197.259 306.305 C 196.457 305.845,195.260 305.196,194.600 304.861 C 190.439 302.753,183.964 294.215,182.420 288.800 C 182.138 287.810,181.748 286.478,181.553 285.840 C 181.359 285.202,181.200 280.477,181.200 275.340 L 181.200 266.000 138.900 265.993 C 91.545 265.985,93.554 266.098,87.600 263.121 C 84.182 261.411,78.000 255.927,78.000 254.603 C 78.000 254.308,77.865 254.007,77.700 253.933 C 77.167 253.697,75.061 249.031,74.570 247.000 C 71.026 232.338,79.157 218.041,93.074 214.465 L 95.800 213.764 96.012 169.982 C 96.162 138.885,96.356 125.752,96.680 124.652 C 98.493 118.515,103.148 113.043,109.106 110.047 C 110.148 109.523,111.313 108.938,111.695 108.747 C 112.077 108.556,112.797 108.397,113.295 108.394 C 113.793 108.391,114.470 108.213,114.800 108.000 C 115.180 107.754,137.302 107.610,175.255 107.606 L 235.110 107.600 237.046 108.900 M303.631 110.369 L 304.800 111.538 304.800 187.515 L 304.800 263.491 303.755 264.536 C 302.243 266.048,302.267 266.047,278.056 265.918 L 255.912 265.800 254.756 264.415 L 253.600 263.030 253.600 187.689 C 253.600 132.987,253.722 112.108,254.047 111.474 C 255.254 109.113,254.072 109.219,279.331 109.209 L 302.462 109.200 303.631 110.369 " stroke="none" fill="#fb140c" fill-rule="evenodd"></path><path id="path3" d="M199.100 18.682 C 199.595 18.778,200.405 18.778,200.900 18.682 C 201.395 18.587,200.990 18.509,200.000 18.509 C 199.010 18.509,198.605 18.587,199.100 18.682 M182.000 19.438 C 170.700 20.655,162.545 22.231,150.200 25.584 C 147.425 26.338,137.155 29.879,135.000 30.826 C 134.560 31.019,132.220 32.011,129.800 33.031 C 125.888 34.679,115.827 39.646,112.600 41.522 C 111.940 41.906,110.500 42.745,109.400 43.388 C 92.388 53.318,74.313 69.030,61.600 84.938 C 61.270 85.351,60.816 85.894,60.591 86.145 C 58.074 88.950,49.097 102.136,46.529 106.800 C 45.862 108.010,44.787 109.900,44.138 111.000 C 41.426 115.600,35.778 127.951,33.803 133.600 C 33.227 135.250,32.597 136.960,32.404 137.400 C 32.211 137.840,31.836 138.920,31.571 139.800 C 31.306 140.680,30.949 141.760,30.778 142.200 C 30.607 142.640,30.350 143.450,30.206 144.000 C 30.063 144.550,29.778 145.585,29.573 146.300 C 28.329 150.637,28.134 151.366,27.196 155.200 C 23.086 172.007,21.482 193.020,23.011 210.000 C 23.795 218.711,24.189 221.708,25.587 229.600 C 26.206 233.093,27.752 239.738,28.751 243.200 C 28.973 243.970,29.325 245.230,29.533 246.000 C 32.375 256.535,40.528 275.450,46.429 285.200 C 47.561 287.070,48.847 289.230,49.288 290.000 C 50.199 291.592,56.798 301.295,57.176 301.600 C 57.313 301.710,58.292 302.970,59.353 304.400 C 65.672 312.919,76.862 324.553,86.283 332.397 C 91.055 336.370,91.064 336.377,92.800 337.586 C 93.570 338.123,94.290 338.662,94.400 338.786 C 97.078 341.785,116.653 353.369,126.200 357.604 C 127.300 358.092,128.920 358.814,129.800 359.209 C 138.682 363.197,150.995 367.137,162.400 369.642 C 185.788 374.777,214.212 374.777,237.600 369.642 C 244.527 368.121,249.062 366.884,255.600 364.734 C 260.400 363.156,266.828 360.724,270.200 359.209 C 271.080 358.814,272.700 358.092,273.800 357.604 C 278.386 355.570,281.138 354.154,288.000 350.299 C 293.330 347.305,304.543 339.969,305.600 338.786 C 305.710 338.662,306.430 338.123,307.200 337.586 C 307.970 337.050,308.870 336.397,309.200 336.135 C 320.808 326.916,333.287 314.322,340.647 304.400 C 341.708 302.970,342.687 301.710,342.824 301.600 C 343.202 301.295,349.801 291.592,350.712 290.000 C 351.153 289.230,352.439 287.070,353.571 285.200 C 359.444 275.497,367.537 256.743,370.445 246.100 C 370.640 245.385,370.992 244.125,371.227 243.300 C 372.253 239.691,373.815 232.975,374.413 229.600 C 375.811 221.708,376.205 218.711,376.989 210.000 C 378.418 194.138,377.181 175.469,373.585 158.600 C 373.270 157.124,373.086 156.355,372.027 152.100 C 371.654 150.604,371.069 148.475,370.404 146.200 C 370.212 145.540,369.937 144.550,369.794 144.000 C 369.650 143.450,369.393 142.640,369.222 142.200 C 369.051 141.760,368.687 140.680,368.414 139.800 C 365.706 131.082,359.746 117.733,354.394 108.400 C 349.792 100.374,342.040 89.009,338.198 84.655 C 337.977 84.405,336.988 83.210,336.001 82.000 C 332.397 77.585,323.963 68.846,318.400 63.764 C 312.398 58.280,294.403 45.055,290.800 43.480 C 290.470 43.336,289.300 42.676,288.200 42.014 C 284.738 39.930,274.780 34.960,270.200 33.031 C 267.780 32.011,265.440 31.019,265.000 30.826 C 262.845 29.879,252.575 26.338,249.800 25.584 C 233.419 21.135,217.974 18.717,206.848 18.859 C 202.324 18.917,202.413 18.933,210.200 19.444 C 223.517 20.318,231.791 21.559,243.000 24.364 C 243.880 24.584,245.140 24.876,245.800 25.012 C 246.460 25.149,247.360 25.406,247.800 25.585 C 248.240 25.763,249.410 26.134,250.400 26.410 C 260.334 29.177,276.729 35.971,284.800 40.666 C 286.716 41.780,288.367 42.728,290.541 43.960 C 307.169 53.384,326.624 70.553,339.540 87.200 C 340.991 89.070,342.273 90.690,342.389 90.800 C 342.505 90.910,342.780 91.289,343.000 91.643 C 343.220 91.997,344.854 94.427,346.631 97.043 C 358.325 114.258,366.988 133.555,371.572 152.600 C 372.048 154.580,372.596 156.830,372.789 157.600 C 373.115 158.897,373.344 160.058,374.389 165.700 C 378.392 187.305,377.633 214.490,372.421 236.200 C 372.209 237.080,371.866 238.520,371.657 239.400 C 370.757 243.194,369.825 246.262,367.345 253.600 C 365.896 257.890,364.387 262.120,363.993 263.000 C 363.599 263.880,362.945 265.409,362.538 266.397 C 361.113 269.866,354.532 282.643,352.029 286.800 C 349.149 291.584,345.994 296.504,345.617 296.800 C 345.476 296.910,344.935 297.630,344.413 298.400 C 335.334 311.805,319.800 327.705,305.611 338.116 C 304.175 339.170,302.660 340.315,302.243 340.661 C 301.827 341.006,299.847 342.348,297.843 343.643 C 295.840 344.938,294.020 346.142,293.800 346.319 C 293.580 346.496,293.130 346.762,292.800 346.911 C 292.470 347.060,291.300 347.724,290.200 348.388 C 283.393 352.493,272.218 357.997,265.400 360.603 C 263.860 361.192,262.240 361.819,261.800 361.996 C 261.360 362.174,260.370 362.536,259.600 362.800 C 258.830 363.064,257.840 363.432,257.400 363.616 C 254.702 364.748,244.285 367.612,238.000 368.950 C 223.913 371.950,214.065 373.000,200.000 373.000 C 185.935 373.000,176.087 371.950,162.000 368.950 C 155.715 367.612,145.298 364.748,142.600 363.616 C 142.160 363.432,141.170 363.064,140.400 362.800 C 139.630 362.536,138.640 362.174,138.200 361.996 C 137.760 361.819,136.140 361.192,134.600 360.603 C 128.794 358.383,116.440 352.353,110.883 349.026 C 108.839 347.802,107.076 346.800,106.966 346.800 C 106.856 346.800,106.549 346.619,106.283 346.399 C 106.017 346.178,104.160 344.938,102.157 343.643 C 100.153 342.348,98.173 341.006,97.757 340.661 C 97.340 340.315,95.825 339.170,94.389 338.116 C 80.200 327.705,64.666 311.805,55.587 298.400 C 55.065 297.630,54.524 296.910,54.383 296.800 C 54.006 296.504,50.851 291.584,47.971 286.800 C 45.468 282.643,38.887 269.866,37.462 266.397 C 37.055 265.409,36.401 263.880,36.007 263.000 C 35.105 260.985,30.237 246.608,29.371 243.400 C 22.482 217.885,21.125 189.624,25.635 165.600 C 25.862 164.390,26.231 162.410,26.454 161.200 C 26.677 159.990,27.018 158.370,27.211 157.600 C 27.404 156.830,27.952 154.580,28.428 152.600 C 33.012 133.555,41.675 114.258,53.369 97.043 C 55.146 94.427,56.780 92.004,57.000 91.660 C 57.220 91.316,57.623 90.790,57.896 90.492 C 58.169 90.194,59.381 88.636,60.590 87.031 C 72.146 71.676,93.026 53.274,109.459 43.960 C 111.633 42.728,113.284 41.780,115.200 40.666 C 123.271 35.971,139.666 29.177,149.600 26.410 C 150.590 26.134,151.760 25.763,152.200 25.585 C 152.640 25.406,153.540 25.149,154.200 25.012 C 154.860 24.876,156.120 24.582,157.000 24.360 C 158.508 23.979,159.218 23.817,163.900 22.779 C 171.247 21.150,179.216 20.131,190.000 19.441 L 198.200 18.917 192.600 18.908 C 189.520 18.903,184.750 19.142,182.000 19.438 " stroke="none" fill="#950c09" fill-rule="evenodd"></path><path id="path4" d="M114.800 108.000 C 114.470 108.213,113.793 108.391,113.295 108.394 C 112.797 108.397,112.077 108.556,111.695 108.747 C 111.313 108.938,110.148 109.523,109.106 110.047 C 103.148 113.043,98.493 118.515,96.680 124.652 C 96.356 125.752,96.162 138.885,96.012 169.982 L 95.800 213.764 93.074 214.465 C 83.462 216.935,76.988 223.573,74.414 233.600 C 73.931 235.484,74.039 244.803,74.570 247.000 C 75.061 249.031,77.167 253.697,77.700 253.933 C 77.865 254.007,78.000 254.308,78.000 254.603 C 78.000 255.927,84.182 261.411,87.600 263.121 C 93.554 266.098,91.545 265.985,138.900 265.993 L 181.200 266.000 181.200 275.340 C 181.200 280.477,181.359 285.202,181.553 285.840 C 181.748 286.478,182.138 287.810,182.420 288.800 C 183.964 294.215,190.439 302.753,194.600 304.861 C 195.260 305.196,196.457 305.845,197.259 306.305 C 202.109 309.082,211.507 310.479,216.554 309.174 C 222.143 307.729,223.786 307.025,227.800 304.361 C 232.749 301.075,236.474 296.415,238.800 290.600 C 239.020 290.050,239.368 289.195,239.573 288.700 C 239.778 288.205,240.080 287.170,240.245 286.400 C 240.410 285.630,240.599 246.390,240.667 199.200 L 240.789 113.400 239.886 111.800 C 239.389 110.920,238.111 109.615,237.046 108.900 L 235.110 107.600 175.255 107.606 C 137.302 107.610,115.180 107.754,114.800 108.000 M235.451 108.638 C 237.418 109.449,238.675 110.604,239.643 112.493 C 240.896 114.936,240.630 283.154,239.367 287.400 C 234.985 302.126,220.524 311.438,206.224 308.743 C 194.870 306.603,186.613 299.437,182.782 288.397 C 181.973 286.068,181.855 284.767,181.640 275.800 L 181.400 265.800 138.600 265.567 C 97.038 265.342,94.660 265.268,90.983 264.092 C 71.801 257.960,68.365 229.585,85.450 218.399 C 87.928 216.776,89.729 216.050,95.200 214.470 L 96.200 214.181 96.400 170.390 L 96.600 126.600 97.494 123.971 C 99.385 118.413,103.514 113.578,108.800 110.732 C 110.459 109.839,111.207 109.575,115.200 108.469 C 117.900 107.722,233.622 107.884,235.451 108.638 M255.347 109.909 C 253.543 111.370,253.600 108.822,253.600 187.689 L 253.600 263.030 254.756 264.415 L 255.912 265.800 278.056 265.918 C 302.267 266.047,302.243 266.048,303.755 264.536 L 304.800 263.491 304.800 187.515 L 304.800 111.538 303.631 110.369 L 302.462 109.200 279.331 109.209 C 258.019 109.217,256.133 109.272,255.347 109.909 M303.231 110.769 L 304.400 111.938 304.400 187.494 L 304.400 263.049 303.562 263.949 C 302.072 265.548,301.304 265.600,279.154 265.600 C 255.782 265.600,256.097 265.628,254.659 263.435 C 253.831 262.170,253.623 113.485,254.447 111.874 C 255.653 109.515,254.513 109.619,279.331 109.609 L 302.062 109.600 303.231 110.769 " stroke="none" fill="#fc7c7c" fill-rule="evenodd"></path></g></svg>